G75*
%MOIN*%
%OFA0B0*%
%FSLAX24Y24*%
%IPPOS*%
%LPD*%
%AMOC8*
5,1,8,0,0,1.08239X$1,22.5*
%
%ADD10C,0.0000*%
%ADD11C,0.0600*%
%ADD12OC8,0.0600*%
%ADD13OC8,0.0710*%
%ADD14C,0.0710*%
%ADD15OC8,0.0634*%
%ADD16C,0.0556*%
%ADD17OC8,0.0680*%
%ADD18C,0.1380*%
%ADD19C,0.0640*%
%ADD20C,0.0480*%
D10*
X002995Y001085D02*
X002995Y011581D01*
X023365Y011581D01*
X023365Y001085D01*
X002995Y001085D01*
X006530Y001403D02*
X006532Y001453D01*
X006538Y001503D01*
X006548Y001553D01*
X006561Y001601D01*
X006578Y001649D01*
X006599Y001695D01*
X006623Y001739D01*
X006651Y001781D01*
X006682Y001821D01*
X006716Y001858D01*
X006753Y001893D01*
X006792Y001924D01*
X006833Y001953D01*
X006877Y001978D01*
X006923Y002000D01*
X006970Y002018D01*
X007018Y002032D01*
X007067Y002043D01*
X007117Y002050D01*
X007167Y002053D01*
X007218Y002052D01*
X007268Y002047D01*
X007318Y002038D01*
X007366Y002026D01*
X007414Y002009D01*
X007460Y001989D01*
X007505Y001966D01*
X007548Y001939D01*
X007588Y001909D01*
X007626Y001876D01*
X007661Y001840D01*
X007694Y001801D01*
X007723Y001760D01*
X007749Y001717D01*
X007772Y001672D01*
X007791Y001625D01*
X007806Y001577D01*
X007818Y001528D01*
X007826Y001478D01*
X007830Y001428D01*
X007830Y001378D01*
X007826Y001328D01*
X007818Y001278D01*
X007806Y001229D01*
X007791Y001181D01*
X007772Y001134D01*
X007749Y001089D01*
X007723Y001046D01*
X007694Y001005D01*
X007661Y000966D01*
X007626Y000930D01*
X007588Y000897D01*
X007548Y000867D01*
X007505Y000840D01*
X007460Y000817D01*
X007414Y000797D01*
X007366Y000780D01*
X007318Y000768D01*
X007268Y000759D01*
X007218Y000754D01*
X007167Y000753D01*
X007117Y000756D01*
X007067Y000763D01*
X007018Y000774D01*
X006970Y000788D01*
X006923Y000806D01*
X006877Y000828D01*
X006833Y000853D01*
X006792Y000882D01*
X006753Y000913D01*
X006716Y000948D01*
X006682Y000985D01*
X006651Y001025D01*
X006623Y001067D01*
X006599Y001111D01*
X006578Y001157D01*
X006561Y001205D01*
X006548Y001253D01*
X006538Y001303D01*
X006532Y001353D01*
X006530Y001403D01*
X006530Y011263D02*
X006532Y011313D01*
X006538Y011363D01*
X006548Y011413D01*
X006561Y011461D01*
X006578Y011509D01*
X006599Y011555D01*
X006623Y011599D01*
X006651Y011641D01*
X006682Y011681D01*
X006716Y011718D01*
X006753Y011753D01*
X006792Y011784D01*
X006833Y011813D01*
X006877Y011838D01*
X006923Y011860D01*
X006970Y011878D01*
X007018Y011892D01*
X007067Y011903D01*
X007117Y011910D01*
X007167Y011913D01*
X007218Y011912D01*
X007268Y011907D01*
X007318Y011898D01*
X007366Y011886D01*
X007414Y011869D01*
X007460Y011849D01*
X007505Y011826D01*
X007548Y011799D01*
X007588Y011769D01*
X007626Y011736D01*
X007661Y011700D01*
X007694Y011661D01*
X007723Y011620D01*
X007749Y011577D01*
X007772Y011532D01*
X007791Y011485D01*
X007806Y011437D01*
X007818Y011388D01*
X007826Y011338D01*
X007830Y011288D01*
X007830Y011238D01*
X007826Y011188D01*
X007818Y011138D01*
X007806Y011089D01*
X007791Y011041D01*
X007772Y010994D01*
X007749Y010949D01*
X007723Y010906D01*
X007694Y010865D01*
X007661Y010826D01*
X007626Y010790D01*
X007588Y010757D01*
X007548Y010727D01*
X007505Y010700D01*
X007460Y010677D01*
X007414Y010657D01*
X007366Y010640D01*
X007318Y010628D01*
X007268Y010619D01*
X007218Y010614D01*
X007167Y010613D01*
X007117Y010616D01*
X007067Y010623D01*
X007018Y010634D01*
X006970Y010648D01*
X006923Y010666D01*
X006877Y010688D01*
X006833Y010713D01*
X006792Y010742D01*
X006753Y010773D01*
X006716Y010808D01*
X006682Y010845D01*
X006651Y010885D01*
X006623Y010927D01*
X006599Y010971D01*
X006578Y011017D01*
X006561Y011065D01*
X006548Y011113D01*
X006538Y011163D01*
X006532Y011213D01*
X006530Y011263D01*
D11*
X009180Y008593D02*
X009180Y008073D01*
X010180Y008073D02*
X010180Y008593D01*
X011180Y008593D02*
X011180Y008073D01*
X012180Y008073D02*
X012180Y008593D01*
X013180Y008593D02*
X013180Y008073D01*
X014180Y008073D02*
X014180Y008593D01*
X015180Y008593D02*
X015180Y008073D01*
X016180Y008073D02*
X016180Y008593D01*
X017180Y008593D02*
X017180Y008073D01*
X017180Y005593D02*
X017180Y005073D01*
X016180Y005073D02*
X016180Y005593D01*
X015180Y005593D02*
X015180Y005073D01*
X014180Y005073D02*
X014180Y005593D01*
X013180Y005593D02*
X013180Y005073D01*
X012180Y005073D02*
X012180Y005593D01*
X011180Y005593D02*
X011180Y005073D01*
X010180Y005073D02*
X010180Y005593D01*
X009180Y005593D02*
X009180Y005073D01*
D12*
X009180Y003833D03*
X009180Y002833D03*
X013180Y002833D03*
X013180Y003833D03*
X016180Y003833D03*
X016180Y002833D03*
D13*
X018180Y003833D03*
D14*
X018180Y002833D03*
D15*
X019349Y005995D03*
X020334Y005995D03*
X020334Y006822D03*
X020334Y007845D03*
X020334Y008672D03*
X019349Y008672D03*
D16*
X021830Y007571D02*
X021830Y007096D01*
D17*
X007680Y007413D03*
X006680Y007953D03*
X007680Y008493D03*
X006680Y006873D03*
X007680Y006333D03*
X006680Y005793D03*
X007680Y005253D03*
X006680Y004713D03*
X007680Y004173D03*
D18*
X007180Y001403D03*
X007180Y011263D03*
D19*
X010680Y010113D02*
X010680Y009553D01*
X011680Y009553D02*
X011680Y010113D01*
X012680Y010113D02*
X012680Y009553D01*
X013900Y003833D02*
X014460Y003833D01*
X014460Y002833D02*
X013900Y002833D01*
X013900Y001833D02*
X014460Y001833D01*
D20*
X012680Y002333D03*
X011680Y003833D03*
X011180Y003833D03*
X009680Y006333D03*
X010180Y006833D03*
X013180Y007333D03*
X009680Y009333D03*
M02*
