G75*
%MOIN*%
%OFA0B0*%
%FSLAX24Y24*%
%IPPOS*%
%LPD*%
%AMOC8*
5,1,8,0,0,1.08239X$1,22.5*
%
%ADD10C,0.0000*%
%ADD11C,0.0060*%
%ADD12C,0.0160*%
%ADD13C,0.0520*%
%ADD14OC8,0.0520*%
%ADD15OC8,0.0630*%
%ADD16C,0.0630*%
%ADD17OC8,0.0554*%
%ADD18C,0.0476*%
%ADD19OC8,0.0600*%
%ADD20C,0.0560*%
%ADD21C,0.0100*%
%ADD22C,0.0400*%
D10*
X002995Y001085D02*
X002995Y011581D01*
X023365Y011581D01*
X023365Y001085D01*
X002995Y001085D01*
X006530Y001403D02*
X006532Y001453D01*
X006538Y001503D01*
X006548Y001553D01*
X006561Y001601D01*
X006578Y001649D01*
X006599Y001695D01*
X006623Y001739D01*
X006651Y001781D01*
X006682Y001821D01*
X006716Y001858D01*
X006753Y001893D01*
X006792Y001924D01*
X006833Y001953D01*
X006877Y001978D01*
X006923Y002000D01*
X006970Y002018D01*
X007018Y002032D01*
X007067Y002043D01*
X007117Y002050D01*
X007167Y002053D01*
X007218Y002052D01*
X007268Y002047D01*
X007318Y002038D01*
X007366Y002026D01*
X007414Y002009D01*
X007460Y001989D01*
X007505Y001966D01*
X007548Y001939D01*
X007588Y001909D01*
X007626Y001876D01*
X007661Y001840D01*
X007694Y001801D01*
X007723Y001760D01*
X007749Y001717D01*
X007772Y001672D01*
X007791Y001625D01*
X007806Y001577D01*
X007818Y001528D01*
X007826Y001478D01*
X007830Y001428D01*
X007830Y001378D01*
X007826Y001328D01*
X007818Y001278D01*
X007806Y001229D01*
X007791Y001181D01*
X007772Y001134D01*
X007749Y001089D01*
X007723Y001046D01*
X007694Y001005D01*
X007661Y000966D01*
X007626Y000930D01*
X007588Y000897D01*
X007548Y000867D01*
X007505Y000840D01*
X007460Y000817D01*
X007414Y000797D01*
X007366Y000780D01*
X007318Y000768D01*
X007268Y000759D01*
X007218Y000754D01*
X007167Y000753D01*
X007117Y000756D01*
X007067Y000763D01*
X007018Y000774D01*
X006970Y000788D01*
X006923Y000806D01*
X006877Y000828D01*
X006833Y000853D01*
X006792Y000882D01*
X006753Y000913D01*
X006716Y000948D01*
X006682Y000985D01*
X006651Y001025D01*
X006623Y001067D01*
X006599Y001111D01*
X006578Y001157D01*
X006561Y001205D01*
X006548Y001253D01*
X006538Y001303D01*
X006532Y001353D01*
X006530Y001403D01*
X006530Y011263D02*
X006532Y011313D01*
X006538Y011363D01*
X006548Y011413D01*
X006561Y011461D01*
X006578Y011509D01*
X006599Y011555D01*
X006623Y011599D01*
X006651Y011641D01*
X006682Y011681D01*
X006716Y011718D01*
X006753Y011753D01*
X006792Y011784D01*
X006833Y011813D01*
X006877Y011838D01*
X006923Y011860D01*
X006970Y011878D01*
X007018Y011892D01*
X007067Y011903D01*
X007117Y011910D01*
X007167Y011913D01*
X007218Y011912D01*
X007268Y011907D01*
X007318Y011898D01*
X007366Y011886D01*
X007414Y011869D01*
X007460Y011849D01*
X007505Y011826D01*
X007548Y011799D01*
X007588Y011769D01*
X007626Y011736D01*
X007661Y011700D01*
X007694Y011661D01*
X007723Y011620D01*
X007749Y011577D01*
X007772Y011532D01*
X007791Y011485D01*
X007806Y011437D01*
X007818Y011388D01*
X007826Y011338D01*
X007830Y011288D01*
X007830Y011238D01*
X007826Y011188D01*
X007818Y011138D01*
X007806Y011089D01*
X007791Y011041D01*
X007772Y010994D01*
X007749Y010949D01*
X007723Y010906D01*
X007694Y010865D01*
X007661Y010826D01*
X007626Y010790D01*
X007588Y010757D01*
X007548Y010727D01*
X007505Y010700D01*
X007460Y010677D01*
X007414Y010657D01*
X007366Y010640D01*
X007318Y010628D01*
X007268Y010619D01*
X007218Y010614D01*
X007167Y010613D01*
X007117Y010616D01*
X007067Y010623D01*
X007018Y010634D01*
X006970Y010648D01*
X006923Y010666D01*
X006877Y010688D01*
X006833Y010713D01*
X006792Y010742D01*
X006753Y010773D01*
X006716Y010808D01*
X006682Y010845D01*
X006651Y010885D01*
X006623Y010927D01*
X006599Y010971D01*
X006578Y011017D01*
X006561Y011065D01*
X006548Y011113D01*
X006538Y011163D01*
X006532Y011213D01*
X006530Y011263D01*
D11*
X020934Y002397D02*
X021041Y002504D01*
X021254Y002504D01*
X021361Y002397D01*
X021578Y002290D02*
X021899Y002290D01*
X022005Y002184D01*
X021899Y002077D01*
X021685Y002077D01*
X021578Y001970D01*
X021685Y001863D01*
X022005Y001863D01*
X022223Y001970D02*
X022330Y001863D01*
X022650Y001863D01*
X022650Y001650D02*
X022650Y002290D01*
X022330Y002290D01*
X022223Y002184D01*
X022223Y001970D01*
X021361Y001863D02*
X020934Y002290D01*
X020934Y002397D01*
X020610Y002290D02*
X020396Y002290D01*
X020289Y002184D01*
X020289Y001863D01*
X020610Y001863D01*
X020716Y001970D01*
X020610Y002077D01*
X020289Y002077D01*
X020934Y001863D02*
X021361Y001863D01*
D12*
X021026Y004676D02*
X021028Y004720D01*
X021034Y004764D01*
X021044Y004807D01*
X021057Y004849D01*
X021074Y004890D01*
X021095Y004929D01*
X021119Y004966D01*
X021146Y005001D01*
X021176Y005033D01*
X021209Y005063D01*
X021245Y005089D01*
X021282Y005113D01*
X021322Y005132D01*
X021363Y005149D01*
X021406Y005161D01*
X021449Y005170D01*
X021493Y005175D01*
X021537Y005176D01*
X021581Y005173D01*
X021625Y005166D01*
X021668Y005155D01*
X021710Y005141D01*
X021750Y005123D01*
X021789Y005101D01*
X021825Y005077D01*
X021859Y005049D01*
X021891Y005018D01*
X021920Y004984D01*
X021946Y004948D01*
X021968Y004910D01*
X021987Y004870D01*
X022002Y004828D01*
X022014Y004786D01*
X022022Y004742D01*
X022026Y004698D01*
X022026Y004654D01*
X022022Y004610D01*
X022014Y004566D01*
X022002Y004524D01*
X021987Y004482D01*
X021968Y004442D01*
X021946Y004404D01*
X021920Y004368D01*
X021891Y004334D01*
X021859Y004303D01*
X021825Y004275D01*
X021789Y004251D01*
X021750Y004229D01*
X021710Y004211D01*
X021668Y004197D01*
X021625Y004186D01*
X021581Y004179D01*
X021537Y004176D01*
X021493Y004177D01*
X021449Y004182D01*
X021406Y004191D01*
X021363Y004203D01*
X021322Y004220D01*
X021282Y004239D01*
X021245Y004263D01*
X021209Y004289D01*
X021176Y004319D01*
X021146Y004351D01*
X021119Y004386D01*
X021095Y004423D01*
X021074Y004462D01*
X021057Y004503D01*
X021044Y004545D01*
X021034Y004588D01*
X021028Y004632D01*
X021026Y004676D01*
X021334Y007358D02*
X021336Y007402D01*
X021342Y007446D01*
X021352Y007489D01*
X021365Y007531D01*
X021382Y007572D01*
X021403Y007611D01*
X021427Y007648D01*
X021454Y007683D01*
X021484Y007715D01*
X021517Y007745D01*
X021553Y007771D01*
X021590Y007795D01*
X021630Y007814D01*
X021671Y007831D01*
X021714Y007843D01*
X021757Y007852D01*
X021801Y007857D01*
X021845Y007858D01*
X021889Y007855D01*
X021933Y007848D01*
X021976Y007837D01*
X022018Y007823D01*
X022058Y007805D01*
X022097Y007783D01*
X022133Y007759D01*
X022167Y007731D01*
X022199Y007700D01*
X022228Y007666D01*
X022254Y007630D01*
X022276Y007592D01*
X022295Y007552D01*
X022310Y007510D01*
X022322Y007468D01*
X022330Y007424D01*
X022334Y007380D01*
X022334Y007336D01*
X022330Y007292D01*
X022322Y007248D01*
X022310Y007206D01*
X022295Y007164D01*
X022276Y007124D01*
X022254Y007086D01*
X022228Y007050D01*
X022199Y007016D01*
X022167Y006985D01*
X022133Y006957D01*
X022097Y006933D01*
X022058Y006911D01*
X022018Y006893D01*
X021976Y006879D01*
X021933Y006868D01*
X021889Y006861D01*
X021845Y006858D01*
X021801Y006859D01*
X021757Y006864D01*
X021714Y006873D01*
X021671Y006885D01*
X021630Y006902D01*
X021590Y006921D01*
X021553Y006945D01*
X021517Y006971D01*
X021484Y007001D01*
X021454Y007033D01*
X021427Y007068D01*
X021403Y007105D01*
X021382Y007144D01*
X021365Y007185D01*
X021352Y007227D01*
X021342Y007270D01*
X021336Y007314D01*
X021334Y007358D01*
X021043Y009971D02*
X021045Y010015D01*
X021051Y010059D01*
X021061Y010102D01*
X021074Y010144D01*
X021091Y010185D01*
X021112Y010224D01*
X021136Y010261D01*
X021163Y010296D01*
X021193Y010328D01*
X021226Y010358D01*
X021262Y010384D01*
X021299Y010408D01*
X021339Y010427D01*
X021380Y010444D01*
X021423Y010456D01*
X021466Y010465D01*
X021510Y010470D01*
X021554Y010471D01*
X021598Y010468D01*
X021642Y010461D01*
X021685Y010450D01*
X021727Y010436D01*
X021767Y010418D01*
X021806Y010396D01*
X021842Y010372D01*
X021876Y010344D01*
X021908Y010313D01*
X021937Y010279D01*
X021963Y010243D01*
X021985Y010205D01*
X022004Y010165D01*
X022019Y010123D01*
X022031Y010081D01*
X022039Y010037D01*
X022043Y009993D01*
X022043Y009949D01*
X022039Y009905D01*
X022031Y009861D01*
X022019Y009819D01*
X022004Y009777D01*
X021985Y009737D01*
X021963Y009699D01*
X021937Y009663D01*
X021908Y009629D01*
X021876Y009598D01*
X021842Y009570D01*
X021806Y009546D01*
X021767Y009524D01*
X021727Y009506D01*
X021685Y009492D01*
X021642Y009481D01*
X021598Y009474D01*
X021554Y009471D01*
X021510Y009472D01*
X021466Y009477D01*
X021423Y009486D01*
X021380Y009498D01*
X021339Y009515D01*
X021299Y009534D01*
X021262Y009558D01*
X021226Y009584D01*
X021193Y009614D01*
X021163Y009646D01*
X021136Y009681D01*
X021112Y009718D01*
X021091Y009757D01*
X021074Y009798D01*
X021061Y009840D01*
X021051Y009883D01*
X021045Y009927D01*
X021043Y009971D01*
D13*
X017180Y008593D02*
X017180Y008073D01*
X016180Y008073D02*
X016180Y008593D01*
X015180Y008593D02*
X015180Y008073D01*
X014180Y008073D02*
X014180Y008593D01*
X013180Y008593D02*
X013180Y008073D01*
X012180Y008073D02*
X012180Y008593D01*
X011180Y008593D02*
X011180Y008073D01*
X010180Y008073D02*
X010180Y008593D01*
X009180Y008593D02*
X009180Y008073D01*
X009180Y005593D02*
X009180Y005073D01*
X010180Y005073D02*
X010180Y005593D01*
X011180Y005593D02*
X011180Y005073D01*
X012180Y005073D02*
X012180Y005593D01*
X013180Y005593D02*
X013180Y005073D01*
X014180Y005073D02*
X014180Y005593D01*
X015180Y005593D02*
X015180Y005073D01*
X016180Y005073D02*
X016180Y005593D01*
X017180Y005593D02*
X017180Y005073D01*
D14*
X016180Y003833D03*
X016180Y002833D03*
X013180Y002833D03*
X013180Y003833D03*
X009180Y003833D03*
X009180Y002833D03*
D15*
X018180Y003833D03*
D16*
X018180Y002833D03*
D17*
X019349Y005995D03*
X020334Y005995D03*
X020334Y006822D03*
X020334Y007845D03*
X020334Y008672D03*
X019349Y008672D03*
D18*
X021830Y007571D02*
X021830Y007096D01*
D19*
X007680Y007413D03*
X006680Y007953D03*
X007680Y008493D03*
X006680Y006873D03*
X007680Y006333D03*
X006680Y005793D03*
X007680Y005253D03*
X006680Y004713D03*
X007680Y004173D03*
D20*
X013900Y003833D02*
X014460Y003833D01*
X014460Y002833D02*
X013900Y002833D01*
X013900Y001833D02*
X014460Y001833D01*
X012680Y009553D02*
X012680Y010113D01*
X011680Y010113D02*
X011680Y009553D01*
X010680Y009553D02*
X010680Y010113D01*
D21*
X011680Y009833D02*
X011680Y007333D01*
X013180Y007333D01*
X013180Y006833D02*
X013680Y007333D01*
X015680Y007333D01*
X016180Y007833D01*
X016180Y008333D01*
X017180Y008333D02*
X017180Y008833D01*
X015180Y010833D01*
X008680Y010833D01*
X005680Y007833D01*
X005680Y004833D01*
X006680Y004833D01*
X006680Y004713D01*
X007680Y004333D02*
X007680Y004173D01*
X007680Y004333D02*
X008680Y003333D01*
X009680Y003333D01*
X010180Y002833D01*
X012180Y002833D01*
X012680Y002333D01*
X012680Y001833D02*
X013180Y002333D01*
X015180Y002333D01*
X015180Y002833D01*
X015680Y003333D01*
X017180Y003333D01*
X017180Y005333D01*
X014680Y006333D02*
X014680Y003833D01*
X014180Y003833D01*
X014680Y003833D02*
X016180Y003833D01*
X016180Y002833D02*
X015180Y001833D01*
X014180Y001833D01*
X012680Y001833D02*
X009180Y001833D01*
X007180Y003833D01*
X007180Y006333D01*
X006180Y006333D01*
X006180Y007333D01*
X007680Y007333D01*
X007680Y007413D01*
X008180Y006833D02*
X008680Y007333D01*
X011680Y007333D01*
X010180Y006833D02*
X013180Y006833D01*
X013180Y006333D02*
X013680Y006833D01*
X019180Y006833D01*
X020180Y007833D01*
X020334Y007845D01*
X020334Y005995D02*
X020180Y005833D01*
X020180Y003513D01*
X020178Y003462D01*
X020172Y003412D01*
X020163Y003362D01*
X020150Y003313D01*
X020133Y003265D01*
X020113Y003218D01*
X020089Y003173D01*
X020062Y003130D01*
X020032Y003089D01*
X019998Y003050D01*
X019963Y003015D01*
X019924Y002981D01*
X019883Y002951D01*
X019840Y002924D01*
X019795Y002900D01*
X019748Y002880D01*
X019700Y002863D01*
X019651Y002850D01*
X019601Y002841D01*
X019551Y002835D01*
X019500Y002833D01*
X018180Y002833D01*
X014180Y002833D02*
X013680Y003333D01*
X012680Y003333D01*
X012180Y003833D01*
X011680Y003833D01*
X011680Y003333D02*
X011180Y003833D01*
X011680Y003333D02*
X012180Y003333D01*
X012680Y002833D01*
X013180Y002833D01*
X013680Y004333D02*
X008680Y004333D01*
X007680Y005333D01*
X007680Y005253D01*
X009680Y006333D02*
X013180Y006333D01*
X013180Y005833D02*
X013680Y006333D01*
X014680Y006333D01*
X013180Y005833D02*
X013180Y005333D01*
X014180Y005333D02*
X014180Y004833D01*
X013680Y004333D01*
X012180Y005333D02*
X011180Y005333D01*
X008180Y006833D02*
X006680Y006833D01*
X006680Y006873D01*
X006680Y007833D02*
X006680Y007953D01*
X006680Y008333D01*
X007680Y009333D01*
X009680Y009333D01*
D22*
X009680Y009333D03*
X013180Y007333D03*
X010180Y006833D03*
X009680Y006333D03*
X011180Y003833D03*
X011680Y003833D03*
X012680Y002333D03*
M02*
