%
M48
M72
T01C0.0240
T02C0.0276
T03C0.0320
T04C0.0354
T05C0.0360
T06C0.0400
T07C0.1300
%
T01
X11180Y3833
X11680Y3833
X12680Y2333
X9680Y6333
X10180Y6833
X13180Y7333
X9680Y9333
T02
X21830Y7333
T03
X17180Y8333
X16180Y8333
X15180Y8333
X14180Y8333
X13180Y8333
X12180Y8333
X11180Y8333
X10180Y8333
X9180Y8333
X9180Y5333
X10180Y5333
X11180Y5333
X12180Y5333
X13180Y5333
X14180Y5333
X15180Y5333
X16180Y5333
X17180Y5333
X16180Y3833
X16180Y2833
X18180Y2833
X18180Y3833
X13180Y3833
X13180Y2833
X9180Y2833
X9180Y3833
T04
X19349Y5995
X20334Y5995
X20334Y6822
X20334Y7845
X20334Y8672
X19349Y8672
T05
X12680Y9833
X11680Y9833
X10680Y9833
X14180Y3833
X14180Y2833
X14180Y1833
T06
X7680Y4173
X6680Y4713
X7680Y5253
X6680Y5793
X7680Y6333
X6680Y6873
X7680Y7413
X6680Y7953
X7680Y8493
T07
X7180Y1403
X7180Y11263
M30
