G75*
%MOIN*%
%OFA0B0*%
%FSLAX25Y25*%
%IPPOS*%
%LPD*%
%AMOC8*
5,1,8,0,0,1.08239X$1,22.5*
%
%ADD10C,0.00000*%
%ADD11C,0.00600*%
%ADD12C,0.01000*%
%ADD13C,0.00500*%
%ADD14C,0.01200*%
%ADD15C,0.01600*%
%ADD16C,0.00400*%
%ADD17R,0.01500X0.02000*%
%ADD18C,0.00800*%
D10*
X0005345Y0009867D02*
X0005345Y0112229D01*
X0312432Y0112229D01*
X0312432Y0009867D01*
X0005345Y0009867D01*
D11*
X0063693Y0025371D02*
X0063693Y0033371D01*
X0064693Y0034371D01*
X0063693Y0035371D01*
X0063693Y0043371D01*
X0064693Y0044371D01*
X0063693Y0045371D01*
X0063693Y0053371D01*
X0064693Y0054371D01*
X0072693Y0054371D01*
X0073693Y0053371D01*
X0073693Y0045371D01*
X0072693Y0044371D01*
X0073693Y0043371D01*
X0073693Y0035371D01*
X0072693Y0034371D01*
X0073693Y0033371D01*
X0073693Y0025371D01*
X0072693Y0024371D01*
X0064693Y0024371D01*
X0063693Y0025371D01*
X0090178Y0031839D02*
X0092178Y0031839D01*
X0091178Y0030839D02*
X0091178Y0032839D01*
X0105595Y0030809D02*
X0105595Y0013809D01*
X0105597Y0013749D01*
X0105602Y0013688D01*
X0105611Y0013629D01*
X0105624Y0013570D01*
X0105640Y0013511D01*
X0105660Y0013454D01*
X0105683Y0013399D01*
X0105710Y0013344D01*
X0105739Y0013292D01*
X0105772Y0013241D01*
X0105808Y0013192D01*
X0105846Y0013146D01*
X0105888Y0013102D01*
X0105932Y0013060D01*
X0105978Y0013022D01*
X0106027Y0012986D01*
X0106078Y0012953D01*
X0106130Y0012924D01*
X0106185Y0012897D01*
X0106240Y0012874D01*
X0106297Y0012854D01*
X0106356Y0012838D01*
X0106415Y0012825D01*
X0106474Y0012816D01*
X0106535Y0012811D01*
X0106595Y0012809D01*
X0126595Y0012809D01*
X0126655Y0012811D01*
X0126716Y0012816D01*
X0126775Y0012825D01*
X0126834Y0012838D01*
X0126893Y0012854D01*
X0126950Y0012874D01*
X0127005Y0012897D01*
X0127060Y0012924D01*
X0127112Y0012953D01*
X0127163Y0012986D01*
X0127212Y0013022D01*
X0127258Y0013060D01*
X0127302Y0013102D01*
X0127344Y0013146D01*
X0127382Y0013192D01*
X0127418Y0013241D01*
X0127451Y0013292D01*
X0127480Y0013344D01*
X0127507Y0013399D01*
X0127530Y0013454D01*
X0127550Y0013511D01*
X0127566Y0013570D01*
X0127579Y0013629D01*
X0127588Y0013688D01*
X0127593Y0013749D01*
X0127595Y0013809D01*
X0127595Y0030809D01*
X0127593Y0030869D01*
X0127588Y0030930D01*
X0127579Y0030989D01*
X0127566Y0031048D01*
X0127550Y0031107D01*
X0127530Y0031164D01*
X0127507Y0031219D01*
X0127480Y0031274D01*
X0127451Y0031326D01*
X0127418Y0031377D01*
X0127382Y0031426D01*
X0127344Y0031472D01*
X0127302Y0031516D01*
X0127258Y0031558D01*
X0127212Y0031596D01*
X0127163Y0031632D01*
X0127112Y0031665D01*
X0127060Y0031694D01*
X0127005Y0031721D01*
X0126950Y0031744D01*
X0126893Y0031764D01*
X0126834Y0031780D01*
X0126775Y0031793D01*
X0126716Y0031802D01*
X0126655Y0031807D01*
X0126595Y0031809D01*
X0106595Y0031809D01*
X0106535Y0031807D01*
X0106474Y0031802D01*
X0106415Y0031793D01*
X0106356Y0031780D01*
X0106297Y0031764D01*
X0106240Y0031744D01*
X0106185Y0031721D01*
X0106130Y0031694D01*
X0106078Y0031665D01*
X0106027Y0031632D01*
X0105978Y0031596D01*
X0105932Y0031558D01*
X0105888Y0031516D01*
X0105846Y0031472D01*
X0105808Y0031426D01*
X0105772Y0031377D01*
X0105739Y0031326D01*
X0105710Y0031274D01*
X0105683Y0031219D01*
X0105660Y0031164D01*
X0105640Y0031107D01*
X0105624Y0031048D01*
X0105611Y0030989D01*
X0105602Y0030930D01*
X0105597Y0030869D01*
X0105595Y0030809D01*
X0116595Y0023809D02*
X0116595Y0023309D01*
X0116595Y0021309D02*
X0116595Y0020809D01*
X0140345Y0022867D02*
X0140345Y0026867D01*
X0140347Y0026954D01*
X0140353Y0027041D01*
X0140362Y0027128D01*
X0140375Y0027214D01*
X0140392Y0027300D01*
X0140413Y0027385D01*
X0140438Y0027468D01*
X0140466Y0027551D01*
X0140497Y0027632D01*
X0140532Y0027712D01*
X0140571Y0027790D01*
X0140613Y0027867D01*
X0140658Y0027942D01*
X0140707Y0028014D01*
X0140758Y0028085D01*
X0140813Y0028153D01*
X0140870Y0028218D01*
X0140931Y0028281D01*
X0140994Y0028342D01*
X0141059Y0028399D01*
X0141127Y0028454D01*
X0141198Y0028505D01*
X0141270Y0028554D01*
X0141345Y0028599D01*
X0141422Y0028641D01*
X0141500Y0028680D01*
X0141580Y0028715D01*
X0141661Y0028746D01*
X0141744Y0028774D01*
X0141827Y0028799D01*
X0141912Y0028820D01*
X0141998Y0028837D01*
X0142084Y0028850D01*
X0142171Y0028859D01*
X0142258Y0028865D01*
X0142345Y0028867D01*
X0188345Y0028867D01*
X0188432Y0028865D01*
X0188519Y0028859D01*
X0188606Y0028850D01*
X0188692Y0028837D01*
X0188778Y0028820D01*
X0188863Y0028799D01*
X0188946Y0028774D01*
X0189029Y0028746D01*
X0189110Y0028715D01*
X0189190Y0028680D01*
X0189268Y0028641D01*
X0189345Y0028599D01*
X0189420Y0028554D01*
X0189492Y0028505D01*
X0189563Y0028454D01*
X0189631Y0028399D01*
X0189696Y0028342D01*
X0189759Y0028281D01*
X0189820Y0028218D01*
X0189877Y0028153D01*
X0189932Y0028085D01*
X0189983Y0028014D01*
X0190032Y0027942D01*
X0190077Y0027867D01*
X0190119Y0027790D01*
X0190158Y0027712D01*
X0190193Y0027632D01*
X0190224Y0027551D01*
X0190252Y0027468D01*
X0190277Y0027385D01*
X0190298Y0027300D01*
X0190315Y0027214D01*
X0190328Y0027128D01*
X0190337Y0027041D01*
X0190343Y0026954D01*
X0190345Y0026867D01*
X0190345Y0022867D01*
X0190343Y0022780D01*
X0190337Y0022693D01*
X0190328Y0022606D01*
X0190315Y0022520D01*
X0190298Y0022434D01*
X0190277Y0022349D01*
X0190252Y0022266D01*
X0190224Y0022183D01*
X0190193Y0022102D01*
X0190158Y0022022D01*
X0190119Y0021944D01*
X0190077Y0021867D01*
X0190032Y0021792D01*
X0189983Y0021720D01*
X0189932Y0021649D01*
X0189877Y0021581D01*
X0189820Y0021516D01*
X0189759Y0021453D01*
X0189696Y0021392D01*
X0189631Y0021335D01*
X0189563Y0021280D01*
X0189492Y0021229D01*
X0189420Y0021180D01*
X0189345Y0021135D01*
X0189268Y0021093D01*
X0189190Y0021054D01*
X0189110Y0021019D01*
X0189029Y0020988D01*
X0188946Y0020960D01*
X0188863Y0020935D01*
X0188778Y0020914D01*
X0188692Y0020897D01*
X0188606Y0020884D01*
X0188519Y0020875D01*
X0188432Y0020869D01*
X0188345Y0020867D01*
X0142345Y0020867D01*
X0141845Y0021367D02*
X0141845Y0028367D01*
X0148845Y0028367D01*
X0148845Y0021367D01*
X0141845Y0021367D01*
X0142345Y0020867D02*
X0142258Y0020869D01*
X0142171Y0020875D01*
X0142084Y0020884D01*
X0141998Y0020897D01*
X0141912Y0020914D01*
X0141827Y0020935D01*
X0141744Y0020960D01*
X0141661Y0020988D01*
X0141580Y0021019D01*
X0141500Y0021054D01*
X0141422Y0021093D01*
X0141345Y0021135D01*
X0141270Y0021180D01*
X0141198Y0021229D01*
X0141127Y0021280D01*
X0141059Y0021335D01*
X0140994Y0021392D01*
X0140931Y0021453D01*
X0140870Y0021516D01*
X0140813Y0021581D01*
X0140758Y0021649D01*
X0140707Y0021720D01*
X0140658Y0021792D01*
X0140613Y0021867D01*
X0140571Y0021944D01*
X0140532Y0022022D01*
X0140497Y0022102D01*
X0140466Y0022183D01*
X0140438Y0022266D01*
X0140413Y0022349D01*
X0140392Y0022434D01*
X0140375Y0022520D01*
X0140362Y0022606D01*
X0140353Y0022693D01*
X0140347Y0022780D01*
X0140345Y0022867D01*
X0080178Y0022339D02*
X0080181Y0022609D01*
X0080191Y0022879D01*
X0080208Y0023148D01*
X0080231Y0023417D01*
X0080261Y0023686D01*
X0080297Y0023953D01*
X0080340Y0024220D01*
X0080389Y0024485D01*
X0080445Y0024749D01*
X0080508Y0025012D01*
X0080576Y0025273D01*
X0080652Y0025532D01*
X0080733Y0025789D01*
X0080821Y0026045D01*
X0080915Y0026298D01*
X0081015Y0026549D01*
X0081122Y0026797D01*
X0081234Y0027042D01*
X0081353Y0027285D01*
X0081477Y0027524D01*
X0081607Y0027761D01*
X0081743Y0027994D01*
X0081885Y0028224D01*
X0082032Y0028450D01*
X0082185Y0028673D01*
X0082343Y0028892D01*
X0082506Y0029107D01*
X0082675Y0029317D01*
X0082849Y0029524D01*
X0083028Y0029726D01*
X0083211Y0029924D01*
X0083400Y0030117D01*
X0083593Y0030306D01*
X0083791Y0030489D01*
X0083993Y0030668D01*
X0084200Y0030842D01*
X0084410Y0031011D01*
X0084625Y0031174D01*
X0084844Y0031332D01*
X0085067Y0031485D01*
X0085293Y0031632D01*
X0085523Y0031774D01*
X0085756Y0031910D01*
X0085993Y0032040D01*
X0086232Y0032164D01*
X0086475Y0032283D01*
X0086720Y0032395D01*
X0086968Y0032502D01*
X0087219Y0032602D01*
X0087472Y0032696D01*
X0087728Y0032784D01*
X0087985Y0032865D01*
X0088244Y0032941D01*
X0088505Y0033009D01*
X0088768Y0033072D01*
X0089032Y0033128D01*
X0089297Y0033177D01*
X0089564Y0033220D01*
X0089831Y0033256D01*
X0090100Y0033286D01*
X0090369Y0033309D01*
X0090638Y0033326D01*
X0090908Y0033336D01*
X0091178Y0033339D01*
X0091448Y0033336D01*
X0091718Y0033326D01*
X0091987Y0033309D01*
X0092256Y0033286D01*
X0092525Y0033256D01*
X0092792Y0033220D01*
X0093059Y0033177D01*
X0093324Y0033128D01*
X0093588Y0033072D01*
X0093851Y0033009D01*
X0094112Y0032941D01*
X0094371Y0032865D01*
X0094628Y0032784D01*
X0094884Y0032696D01*
X0095137Y0032602D01*
X0095388Y0032502D01*
X0095636Y0032395D01*
X0095881Y0032283D01*
X0096124Y0032164D01*
X0096363Y0032040D01*
X0096600Y0031910D01*
X0096833Y0031774D01*
X0097063Y0031632D01*
X0097289Y0031485D01*
X0097512Y0031332D01*
X0097731Y0031174D01*
X0097946Y0031011D01*
X0098156Y0030842D01*
X0098363Y0030668D01*
X0098565Y0030489D01*
X0098763Y0030306D01*
X0098956Y0030117D01*
X0099145Y0029924D01*
X0099328Y0029726D01*
X0099507Y0029524D01*
X0099681Y0029317D01*
X0099850Y0029107D01*
X0100013Y0028892D01*
X0100171Y0028673D01*
X0100324Y0028450D01*
X0100471Y0028224D01*
X0100613Y0027994D01*
X0100749Y0027761D01*
X0100879Y0027524D01*
X0101003Y0027285D01*
X0101122Y0027042D01*
X0101234Y0026797D01*
X0101341Y0026549D01*
X0101441Y0026298D01*
X0101535Y0026045D01*
X0101623Y0025789D01*
X0101704Y0025532D01*
X0101780Y0025273D01*
X0101848Y0025012D01*
X0101911Y0024749D01*
X0101967Y0024485D01*
X0102016Y0024220D01*
X0102059Y0023953D01*
X0102095Y0023686D01*
X0102125Y0023417D01*
X0102148Y0023148D01*
X0102165Y0022879D01*
X0102175Y0022609D01*
X0102178Y0022339D01*
X0102175Y0022069D01*
X0102165Y0021799D01*
X0102148Y0021530D01*
X0102125Y0021261D01*
X0102095Y0020992D01*
X0102059Y0020725D01*
X0102016Y0020458D01*
X0101967Y0020193D01*
X0101911Y0019929D01*
X0101848Y0019666D01*
X0101780Y0019405D01*
X0101704Y0019146D01*
X0101623Y0018889D01*
X0101535Y0018633D01*
X0101441Y0018380D01*
X0101341Y0018129D01*
X0101234Y0017881D01*
X0101122Y0017636D01*
X0101003Y0017393D01*
X0100879Y0017154D01*
X0100749Y0016917D01*
X0100613Y0016684D01*
X0100471Y0016454D01*
X0100324Y0016228D01*
X0100171Y0016005D01*
X0100013Y0015786D01*
X0099850Y0015571D01*
X0099681Y0015361D01*
X0099507Y0015154D01*
X0099328Y0014952D01*
X0099145Y0014754D01*
X0098956Y0014561D01*
X0098763Y0014372D01*
X0098565Y0014189D01*
X0098363Y0014010D01*
X0098156Y0013836D01*
X0097946Y0013667D01*
X0097731Y0013504D01*
X0097512Y0013346D01*
X0097289Y0013193D01*
X0097063Y0013046D01*
X0096833Y0012904D01*
X0096600Y0012768D01*
X0096363Y0012638D01*
X0096124Y0012514D01*
X0095881Y0012395D01*
X0095636Y0012283D01*
X0095388Y0012176D01*
X0095137Y0012076D01*
X0094884Y0011982D01*
X0094628Y0011894D01*
X0094371Y0011813D01*
X0094112Y0011737D01*
X0093851Y0011669D01*
X0093588Y0011606D01*
X0093324Y0011550D01*
X0093059Y0011501D01*
X0092792Y0011458D01*
X0092525Y0011422D01*
X0092256Y0011392D01*
X0091987Y0011369D01*
X0091718Y0011352D01*
X0091448Y0011342D01*
X0091178Y0011339D01*
X0090908Y0011342D01*
X0090638Y0011352D01*
X0090369Y0011369D01*
X0090100Y0011392D01*
X0089831Y0011422D01*
X0089564Y0011458D01*
X0089297Y0011501D01*
X0089032Y0011550D01*
X0088768Y0011606D01*
X0088505Y0011669D01*
X0088244Y0011737D01*
X0087985Y0011813D01*
X0087728Y0011894D01*
X0087472Y0011982D01*
X0087219Y0012076D01*
X0086968Y0012176D01*
X0086720Y0012283D01*
X0086475Y0012395D01*
X0086232Y0012514D01*
X0085993Y0012638D01*
X0085756Y0012768D01*
X0085523Y0012904D01*
X0085293Y0013046D01*
X0085067Y0013193D01*
X0084844Y0013346D01*
X0084625Y0013504D01*
X0084410Y0013667D01*
X0084200Y0013836D01*
X0083993Y0014010D01*
X0083791Y0014189D01*
X0083593Y0014372D01*
X0083400Y0014561D01*
X0083211Y0014754D01*
X0083028Y0014952D01*
X0082849Y0015154D01*
X0082675Y0015361D01*
X0082506Y0015571D01*
X0082343Y0015786D01*
X0082185Y0016005D01*
X0082032Y0016228D01*
X0081885Y0016454D01*
X0081743Y0016684D01*
X0081607Y0016917D01*
X0081477Y0017154D01*
X0081353Y0017393D01*
X0081234Y0017636D01*
X0081122Y0017881D01*
X0081015Y0018129D01*
X0080915Y0018380D01*
X0080821Y0018633D01*
X0080733Y0018889D01*
X0080652Y0019146D01*
X0080576Y0019405D01*
X0080508Y0019666D01*
X0080445Y0019929D01*
X0080389Y0020193D01*
X0080340Y0020458D01*
X0080297Y0020725D01*
X0080261Y0020992D01*
X0080231Y0021261D01*
X0080208Y0021530D01*
X0080191Y0021799D01*
X0080181Y0022069D01*
X0080178Y0022339D01*
X0090345Y0043367D02*
X0090345Y0066367D01*
X0230345Y0066367D01*
X0230345Y0058867D01*
X0230219Y0058865D01*
X0230094Y0058859D01*
X0229969Y0058849D01*
X0229844Y0058835D01*
X0229719Y0058818D01*
X0229595Y0058796D01*
X0229472Y0058771D01*
X0229350Y0058741D01*
X0229229Y0058708D01*
X0229109Y0058671D01*
X0228990Y0058631D01*
X0228873Y0058586D01*
X0228756Y0058538D01*
X0228642Y0058486D01*
X0228529Y0058431D01*
X0228418Y0058372D01*
X0228309Y0058310D01*
X0228202Y0058244D01*
X0228097Y0058175D01*
X0227994Y0058103D01*
X0227893Y0058028D01*
X0227795Y0057949D01*
X0227700Y0057867D01*
X0227607Y0057783D01*
X0227517Y0057695D01*
X0227429Y0057605D01*
X0227345Y0057512D01*
X0227263Y0057417D01*
X0227184Y0057319D01*
X0227109Y0057218D01*
X0227037Y0057115D01*
X0226968Y0057010D01*
X0226902Y0056903D01*
X0226840Y0056794D01*
X0226781Y0056683D01*
X0226726Y0056570D01*
X0226674Y0056456D01*
X0226626Y0056339D01*
X0226581Y0056222D01*
X0226541Y0056103D01*
X0226504Y0055983D01*
X0226471Y0055862D01*
X0226441Y0055740D01*
X0226416Y0055617D01*
X0226394Y0055493D01*
X0226377Y0055368D01*
X0226363Y0055243D01*
X0226353Y0055118D01*
X0226347Y0054993D01*
X0226345Y0054867D01*
X0226347Y0054741D01*
X0226353Y0054616D01*
X0226363Y0054491D01*
X0226377Y0054366D01*
X0226394Y0054241D01*
X0226416Y0054117D01*
X0226441Y0053994D01*
X0226471Y0053872D01*
X0226504Y0053751D01*
X0226541Y0053631D01*
X0226581Y0053512D01*
X0226626Y0053395D01*
X0226674Y0053278D01*
X0226726Y0053164D01*
X0226781Y0053051D01*
X0226840Y0052940D01*
X0226902Y0052831D01*
X0226968Y0052724D01*
X0227037Y0052619D01*
X0227109Y0052516D01*
X0227184Y0052415D01*
X0227263Y0052317D01*
X0227345Y0052222D01*
X0227429Y0052129D01*
X0227517Y0052039D01*
X0227607Y0051951D01*
X0227700Y0051867D01*
X0227795Y0051785D01*
X0227893Y0051706D01*
X0227994Y0051631D01*
X0228097Y0051559D01*
X0228202Y0051490D01*
X0228309Y0051424D01*
X0228418Y0051362D01*
X0228529Y0051303D01*
X0228642Y0051248D01*
X0228756Y0051196D01*
X0228873Y0051148D01*
X0228990Y0051103D01*
X0229109Y0051063D01*
X0229229Y0051026D01*
X0229350Y0050993D01*
X0229472Y0050963D01*
X0229595Y0050938D01*
X0229719Y0050916D01*
X0229844Y0050899D01*
X0229969Y0050885D01*
X0230094Y0050875D01*
X0230219Y0050869D01*
X0230345Y0050867D01*
X0230345Y0043367D01*
X0090345Y0043367D01*
X0073659Y0055915D02*
X0072659Y0054915D01*
X0064659Y0054915D01*
X0063659Y0055915D01*
X0063659Y0063915D01*
X0064659Y0064915D01*
X0063659Y0065915D01*
X0063659Y0073915D01*
X0064659Y0074915D01*
X0063659Y0075915D01*
X0063659Y0083915D01*
X0064659Y0084915D01*
X0072659Y0084915D01*
X0073659Y0083915D01*
X0073659Y0075915D01*
X0072659Y0074915D01*
X0073659Y0073915D01*
X0073659Y0065915D01*
X0072659Y0064915D01*
X0073659Y0063915D01*
X0073659Y0055915D01*
X0128553Y0081915D02*
X0152553Y0081915D01*
X0143053Y0085415D02*
X0143053Y0088415D01*
X0145553Y0088415D01*
X0143053Y0088415D02*
X0143053Y0091415D01*
X0141553Y0091415D02*
X0141553Y0085415D01*
X0139553Y0085415D01*
X0139553Y0091415D01*
X0141553Y0091415D01*
X0138053Y0091415D02*
X0138053Y0088415D01*
X0135553Y0088415D01*
X0138053Y0088415D02*
X0138053Y0085415D01*
X0128553Y0081915D02*
X0128393Y0081917D01*
X0128234Y0081923D01*
X0128075Y0081933D01*
X0127916Y0081946D01*
X0127757Y0081964D01*
X0127599Y0081985D01*
X0127442Y0082011D01*
X0127285Y0082040D01*
X0127129Y0082073D01*
X0126974Y0082110D01*
X0126819Y0082150D01*
X0126666Y0082195D01*
X0126514Y0082243D01*
X0126363Y0082295D01*
X0126214Y0082351D01*
X0126066Y0082410D01*
X0125919Y0082473D01*
X0125774Y0082539D01*
X0125631Y0082609D01*
X0125489Y0082683D01*
X0125349Y0082759D01*
X0125211Y0082840D01*
X0125076Y0082923D01*
X0124942Y0083010D01*
X0124810Y0083101D01*
X0124681Y0083194D01*
X0124554Y0083291D01*
X0124429Y0083390D01*
X0124307Y0083493D01*
X0124188Y0083599D01*
X0124071Y0083707D01*
X0123957Y0083819D01*
X0123845Y0083933D01*
X0123737Y0084050D01*
X0123631Y0084169D01*
X0123528Y0084291D01*
X0123429Y0084416D01*
X0123332Y0084543D01*
X0123239Y0084672D01*
X0123148Y0084804D01*
X0123061Y0084938D01*
X0122978Y0085073D01*
X0122897Y0085211D01*
X0122821Y0085351D01*
X0122747Y0085493D01*
X0122677Y0085636D01*
X0122611Y0085781D01*
X0122548Y0085928D01*
X0122489Y0086076D01*
X0122433Y0086225D01*
X0122381Y0086376D01*
X0122333Y0086528D01*
X0122288Y0086681D01*
X0122248Y0086836D01*
X0122211Y0086991D01*
X0122178Y0087147D01*
X0122149Y0087304D01*
X0122123Y0087461D01*
X0122102Y0087619D01*
X0122084Y0087778D01*
X0122071Y0087937D01*
X0122061Y0088096D01*
X0122055Y0088255D01*
X0122053Y0088415D01*
X0122055Y0088575D01*
X0122061Y0088734D01*
X0122071Y0088893D01*
X0122084Y0089052D01*
X0122102Y0089211D01*
X0122123Y0089369D01*
X0122149Y0089526D01*
X0122178Y0089683D01*
X0122211Y0089839D01*
X0122248Y0089994D01*
X0122288Y0090149D01*
X0122333Y0090302D01*
X0122381Y0090454D01*
X0122433Y0090605D01*
X0122489Y0090754D01*
X0122548Y0090902D01*
X0122611Y0091049D01*
X0122677Y0091194D01*
X0122747Y0091337D01*
X0122821Y0091479D01*
X0122897Y0091619D01*
X0122978Y0091757D01*
X0123061Y0091892D01*
X0123148Y0092026D01*
X0123239Y0092158D01*
X0123332Y0092287D01*
X0123429Y0092414D01*
X0123528Y0092539D01*
X0123631Y0092661D01*
X0123737Y0092780D01*
X0123845Y0092897D01*
X0123957Y0093011D01*
X0124071Y0093123D01*
X0124188Y0093231D01*
X0124307Y0093337D01*
X0124429Y0093440D01*
X0124554Y0093539D01*
X0124681Y0093636D01*
X0124810Y0093729D01*
X0124942Y0093820D01*
X0125076Y0093907D01*
X0125211Y0093990D01*
X0125349Y0094071D01*
X0125489Y0094147D01*
X0125631Y0094221D01*
X0125774Y0094291D01*
X0125919Y0094357D01*
X0126066Y0094420D01*
X0126214Y0094479D01*
X0126363Y0094535D01*
X0126514Y0094587D01*
X0126666Y0094635D01*
X0126819Y0094680D01*
X0126974Y0094720D01*
X0127129Y0094757D01*
X0127285Y0094790D01*
X0127442Y0094819D01*
X0127599Y0094845D01*
X0127757Y0094866D01*
X0127916Y0094884D01*
X0128075Y0094897D01*
X0128234Y0094907D01*
X0128393Y0094913D01*
X0128553Y0094915D01*
X0152553Y0094915D01*
X0152713Y0094913D01*
X0152872Y0094907D01*
X0153031Y0094897D01*
X0153190Y0094884D01*
X0153349Y0094866D01*
X0153507Y0094845D01*
X0153664Y0094819D01*
X0153821Y0094790D01*
X0153977Y0094757D01*
X0154132Y0094720D01*
X0154287Y0094680D01*
X0154440Y0094635D01*
X0154592Y0094587D01*
X0154743Y0094535D01*
X0154892Y0094479D01*
X0155040Y0094420D01*
X0155187Y0094357D01*
X0155332Y0094291D01*
X0155475Y0094221D01*
X0155617Y0094147D01*
X0155757Y0094071D01*
X0155895Y0093990D01*
X0156030Y0093907D01*
X0156164Y0093820D01*
X0156296Y0093729D01*
X0156425Y0093636D01*
X0156552Y0093539D01*
X0156677Y0093440D01*
X0156799Y0093337D01*
X0156918Y0093231D01*
X0157035Y0093123D01*
X0157149Y0093011D01*
X0157261Y0092897D01*
X0157369Y0092780D01*
X0157475Y0092661D01*
X0157578Y0092539D01*
X0157677Y0092414D01*
X0157774Y0092287D01*
X0157867Y0092158D01*
X0157958Y0092026D01*
X0158045Y0091892D01*
X0158128Y0091757D01*
X0158209Y0091619D01*
X0158285Y0091479D01*
X0158359Y0091337D01*
X0158429Y0091194D01*
X0158495Y0091049D01*
X0158558Y0090902D01*
X0158617Y0090754D01*
X0158673Y0090605D01*
X0158725Y0090454D01*
X0158773Y0090302D01*
X0158818Y0090149D01*
X0158858Y0089994D01*
X0158895Y0089839D01*
X0158928Y0089683D01*
X0158957Y0089526D01*
X0158983Y0089369D01*
X0159004Y0089211D01*
X0159022Y0089052D01*
X0159035Y0088893D01*
X0159045Y0088734D01*
X0159051Y0088575D01*
X0159053Y0088415D01*
X0159051Y0088255D01*
X0159045Y0088096D01*
X0159035Y0087937D01*
X0159022Y0087778D01*
X0159004Y0087619D01*
X0158983Y0087461D01*
X0158957Y0087304D01*
X0158928Y0087147D01*
X0158895Y0086991D01*
X0158858Y0086836D01*
X0158818Y0086681D01*
X0158773Y0086528D01*
X0158725Y0086376D01*
X0158673Y0086225D01*
X0158617Y0086076D01*
X0158558Y0085928D01*
X0158495Y0085781D01*
X0158429Y0085636D01*
X0158359Y0085493D01*
X0158285Y0085351D01*
X0158209Y0085211D01*
X0158128Y0085073D01*
X0158045Y0084938D01*
X0157958Y0084804D01*
X0157867Y0084672D01*
X0157774Y0084543D01*
X0157677Y0084416D01*
X0157578Y0084291D01*
X0157475Y0084169D01*
X0157369Y0084050D01*
X0157261Y0083933D01*
X0157149Y0083819D01*
X0157035Y0083707D01*
X0156918Y0083599D01*
X0156799Y0083493D01*
X0156677Y0083390D01*
X0156552Y0083291D01*
X0156425Y0083194D01*
X0156296Y0083101D01*
X0156164Y0083010D01*
X0156030Y0082923D01*
X0155895Y0082840D01*
X0155757Y0082759D01*
X0155617Y0082683D01*
X0155475Y0082609D01*
X0155332Y0082539D01*
X0155187Y0082473D01*
X0155040Y0082410D01*
X0154892Y0082351D01*
X0154743Y0082295D01*
X0154592Y0082243D01*
X0154440Y0082195D01*
X0154287Y0082150D01*
X0154132Y0082110D01*
X0153977Y0082073D01*
X0153821Y0082040D01*
X0153664Y0082011D01*
X0153507Y0081985D01*
X0153349Y0081964D01*
X0153190Y0081946D01*
X0153031Y0081933D01*
X0152872Y0081923D01*
X0152713Y0081917D01*
X0152553Y0081915D01*
X0170345Y0087867D02*
X0170345Y0091867D01*
X0170347Y0091954D01*
X0170353Y0092041D01*
X0170362Y0092128D01*
X0170375Y0092214D01*
X0170392Y0092300D01*
X0170413Y0092385D01*
X0170438Y0092468D01*
X0170466Y0092551D01*
X0170497Y0092632D01*
X0170532Y0092712D01*
X0170571Y0092790D01*
X0170613Y0092867D01*
X0170658Y0092942D01*
X0170707Y0093014D01*
X0170758Y0093085D01*
X0170813Y0093153D01*
X0170870Y0093218D01*
X0170931Y0093281D01*
X0170994Y0093342D01*
X0171059Y0093399D01*
X0171127Y0093454D01*
X0171198Y0093505D01*
X0171270Y0093554D01*
X0171345Y0093599D01*
X0171422Y0093641D01*
X0171500Y0093680D01*
X0171580Y0093715D01*
X0171661Y0093746D01*
X0171744Y0093774D01*
X0171827Y0093799D01*
X0171912Y0093820D01*
X0171998Y0093837D01*
X0172084Y0093850D01*
X0172171Y0093859D01*
X0172258Y0093865D01*
X0172345Y0093867D01*
X0248345Y0093867D01*
X0248845Y0093367D02*
X0248845Y0086367D01*
X0241845Y0086367D01*
X0241845Y0093367D01*
X0248845Y0093367D01*
X0248345Y0093867D02*
X0248432Y0093865D01*
X0248519Y0093859D01*
X0248606Y0093850D01*
X0248692Y0093837D01*
X0248778Y0093820D01*
X0248863Y0093799D01*
X0248946Y0093774D01*
X0249029Y0093746D01*
X0249110Y0093715D01*
X0249190Y0093680D01*
X0249268Y0093641D01*
X0249345Y0093599D01*
X0249420Y0093554D01*
X0249492Y0093505D01*
X0249563Y0093454D01*
X0249631Y0093399D01*
X0249696Y0093342D01*
X0249759Y0093281D01*
X0249820Y0093218D01*
X0249877Y0093153D01*
X0249932Y0093085D01*
X0249983Y0093014D01*
X0250032Y0092942D01*
X0250077Y0092867D01*
X0250119Y0092790D01*
X0250158Y0092712D01*
X0250193Y0092632D01*
X0250224Y0092551D01*
X0250252Y0092468D01*
X0250277Y0092385D01*
X0250298Y0092300D01*
X0250315Y0092214D01*
X0250328Y0092128D01*
X0250337Y0092041D01*
X0250343Y0091954D01*
X0250345Y0091867D01*
X0250345Y0087867D01*
X0250343Y0087780D01*
X0250337Y0087693D01*
X0250328Y0087606D01*
X0250315Y0087520D01*
X0250298Y0087434D01*
X0250277Y0087349D01*
X0250252Y0087266D01*
X0250224Y0087183D01*
X0250193Y0087102D01*
X0250158Y0087022D01*
X0250119Y0086944D01*
X0250077Y0086867D01*
X0250032Y0086792D01*
X0249983Y0086720D01*
X0249932Y0086649D01*
X0249877Y0086581D01*
X0249820Y0086516D01*
X0249759Y0086453D01*
X0249696Y0086392D01*
X0249631Y0086335D01*
X0249563Y0086280D01*
X0249492Y0086229D01*
X0249420Y0086180D01*
X0249345Y0086135D01*
X0249268Y0086093D01*
X0249190Y0086054D01*
X0249110Y0086019D01*
X0249029Y0085988D01*
X0248946Y0085960D01*
X0248863Y0085935D01*
X0248778Y0085914D01*
X0248692Y0085897D01*
X0248606Y0085884D01*
X0248519Y0085875D01*
X0248432Y0085869D01*
X0248345Y0085867D01*
X0172345Y0085867D01*
X0172258Y0085869D01*
X0172171Y0085875D01*
X0172084Y0085884D01*
X0171998Y0085897D01*
X0171912Y0085914D01*
X0171827Y0085935D01*
X0171744Y0085960D01*
X0171661Y0085988D01*
X0171580Y0086019D01*
X0171500Y0086054D01*
X0171422Y0086093D01*
X0171345Y0086135D01*
X0171270Y0086180D01*
X0171198Y0086229D01*
X0171127Y0086280D01*
X0171059Y0086335D01*
X0170994Y0086392D01*
X0170931Y0086453D01*
X0170870Y0086516D01*
X0170813Y0086581D01*
X0170758Y0086649D01*
X0170707Y0086720D01*
X0170658Y0086792D01*
X0170613Y0086867D01*
X0170571Y0086944D01*
X0170532Y0087022D01*
X0170497Y0087102D01*
X0170466Y0087183D01*
X0170438Y0087266D01*
X0170413Y0087349D01*
X0170392Y0087434D01*
X0170375Y0087520D01*
X0170362Y0087606D01*
X0170353Y0087693D01*
X0170347Y0087780D01*
X0170345Y0087867D01*
X0161431Y0101634D02*
X0148431Y0101634D01*
X0148344Y0101636D01*
X0148257Y0101642D01*
X0148170Y0101651D01*
X0148084Y0101664D01*
X0147998Y0101681D01*
X0147913Y0101702D01*
X0147830Y0101727D01*
X0147747Y0101755D01*
X0147666Y0101786D01*
X0147586Y0101821D01*
X0147508Y0101860D01*
X0147431Y0101902D01*
X0147356Y0101947D01*
X0147284Y0101996D01*
X0147213Y0102047D01*
X0147145Y0102102D01*
X0147080Y0102159D01*
X0147017Y0102220D01*
X0146956Y0102283D01*
X0146899Y0102348D01*
X0146844Y0102416D01*
X0146793Y0102487D01*
X0146744Y0102559D01*
X0146699Y0102634D01*
X0146657Y0102711D01*
X0146618Y0102789D01*
X0146583Y0102869D01*
X0146552Y0102950D01*
X0146524Y0103033D01*
X0146499Y0103116D01*
X0146478Y0103201D01*
X0146461Y0103287D01*
X0146448Y0103373D01*
X0146439Y0103460D01*
X0146433Y0103547D01*
X0146431Y0103634D01*
X0146431Y0108634D01*
X0146433Y0108721D01*
X0146439Y0108808D01*
X0146448Y0108895D01*
X0146461Y0108981D01*
X0146478Y0109067D01*
X0146499Y0109152D01*
X0146524Y0109235D01*
X0146552Y0109318D01*
X0146583Y0109399D01*
X0146618Y0109479D01*
X0146657Y0109557D01*
X0146699Y0109634D01*
X0146744Y0109709D01*
X0146793Y0109781D01*
X0146844Y0109852D01*
X0146899Y0109920D01*
X0146956Y0109985D01*
X0147017Y0110048D01*
X0147080Y0110109D01*
X0147145Y0110166D01*
X0147213Y0110221D01*
X0147284Y0110272D01*
X0147356Y0110321D01*
X0147431Y0110366D01*
X0147508Y0110408D01*
X0147586Y0110447D01*
X0147666Y0110482D01*
X0147747Y0110513D01*
X0147830Y0110541D01*
X0147913Y0110566D01*
X0147998Y0110587D01*
X0148084Y0110604D01*
X0148170Y0110617D01*
X0148257Y0110626D01*
X0148344Y0110632D01*
X0148431Y0110634D01*
X0161431Y0110634D01*
X0161518Y0110632D01*
X0161605Y0110626D01*
X0161692Y0110617D01*
X0161778Y0110604D01*
X0161864Y0110587D01*
X0161949Y0110566D01*
X0162032Y0110541D01*
X0162115Y0110513D01*
X0162196Y0110482D01*
X0162276Y0110447D01*
X0162354Y0110408D01*
X0162431Y0110366D01*
X0162506Y0110321D01*
X0162578Y0110272D01*
X0162649Y0110221D01*
X0162717Y0110166D01*
X0162782Y0110109D01*
X0162845Y0110048D01*
X0162906Y0109985D01*
X0162963Y0109920D01*
X0163018Y0109852D01*
X0163069Y0109781D01*
X0163118Y0109709D01*
X0163163Y0109634D01*
X0163205Y0109557D01*
X0163244Y0109479D01*
X0163279Y0109399D01*
X0163310Y0109318D01*
X0163338Y0109235D01*
X0163363Y0109152D01*
X0163384Y0109067D01*
X0163401Y0108981D01*
X0163414Y0108895D01*
X0163423Y0108808D01*
X0163429Y0108721D01*
X0163431Y0108634D01*
X0163431Y0103634D01*
X0163429Y0103547D01*
X0163423Y0103460D01*
X0163414Y0103373D01*
X0163401Y0103287D01*
X0163384Y0103201D01*
X0163363Y0103116D01*
X0163338Y0103033D01*
X0163310Y0102950D01*
X0163279Y0102869D01*
X0163244Y0102789D01*
X0163205Y0102711D01*
X0163163Y0102634D01*
X0163118Y0102559D01*
X0163069Y0102487D01*
X0163018Y0102416D01*
X0162963Y0102348D01*
X0162906Y0102283D01*
X0162845Y0102220D01*
X0162782Y0102159D01*
X0162717Y0102102D01*
X0162649Y0102047D01*
X0162578Y0101996D01*
X0162506Y0101947D01*
X0162431Y0101902D01*
X0162354Y0101860D01*
X0162276Y0101821D01*
X0162196Y0101786D01*
X0162115Y0101755D01*
X0162032Y0101727D01*
X0161949Y0101702D01*
X0161864Y0101681D01*
X0161778Y0101664D01*
X0161692Y0101651D01*
X0161605Y0101642D01*
X0161518Y0101636D01*
X0161431Y0101634D01*
X0134467Y0103634D02*
X0134467Y0108634D01*
X0134465Y0108721D01*
X0134459Y0108808D01*
X0134450Y0108895D01*
X0134437Y0108981D01*
X0134420Y0109067D01*
X0134399Y0109152D01*
X0134374Y0109235D01*
X0134346Y0109318D01*
X0134315Y0109399D01*
X0134280Y0109479D01*
X0134241Y0109557D01*
X0134199Y0109634D01*
X0134154Y0109709D01*
X0134105Y0109781D01*
X0134054Y0109852D01*
X0133999Y0109920D01*
X0133942Y0109985D01*
X0133881Y0110048D01*
X0133818Y0110109D01*
X0133753Y0110166D01*
X0133685Y0110221D01*
X0133614Y0110272D01*
X0133542Y0110321D01*
X0133467Y0110366D01*
X0133390Y0110408D01*
X0133312Y0110447D01*
X0133232Y0110482D01*
X0133151Y0110513D01*
X0133068Y0110541D01*
X0132985Y0110566D01*
X0132900Y0110587D01*
X0132814Y0110604D01*
X0132728Y0110617D01*
X0132641Y0110626D01*
X0132554Y0110632D01*
X0132467Y0110634D01*
X0119467Y0110634D01*
X0119380Y0110632D01*
X0119293Y0110626D01*
X0119206Y0110617D01*
X0119120Y0110604D01*
X0119034Y0110587D01*
X0118949Y0110566D01*
X0118866Y0110541D01*
X0118783Y0110513D01*
X0118702Y0110482D01*
X0118622Y0110447D01*
X0118544Y0110408D01*
X0118467Y0110366D01*
X0118392Y0110321D01*
X0118320Y0110272D01*
X0118249Y0110221D01*
X0118181Y0110166D01*
X0118116Y0110109D01*
X0118053Y0110048D01*
X0117992Y0109985D01*
X0117935Y0109920D01*
X0117880Y0109852D01*
X0117829Y0109781D01*
X0117780Y0109709D01*
X0117735Y0109634D01*
X0117693Y0109557D01*
X0117654Y0109479D01*
X0117619Y0109399D01*
X0117588Y0109318D01*
X0117560Y0109235D01*
X0117535Y0109152D01*
X0117514Y0109067D01*
X0117497Y0108981D01*
X0117484Y0108895D01*
X0117475Y0108808D01*
X0117469Y0108721D01*
X0117467Y0108634D01*
X0117467Y0103634D01*
X0117469Y0103547D01*
X0117475Y0103460D01*
X0117484Y0103373D01*
X0117497Y0103287D01*
X0117514Y0103201D01*
X0117535Y0103116D01*
X0117560Y0103033D01*
X0117588Y0102950D01*
X0117619Y0102869D01*
X0117654Y0102789D01*
X0117693Y0102711D01*
X0117735Y0102634D01*
X0117780Y0102559D01*
X0117829Y0102487D01*
X0117880Y0102416D01*
X0117935Y0102348D01*
X0117992Y0102283D01*
X0118053Y0102220D01*
X0118116Y0102159D01*
X0118181Y0102102D01*
X0118249Y0102047D01*
X0118320Y0101996D01*
X0118392Y0101947D01*
X0118467Y0101902D01*
X0118544Y0101860D01*
X0118622Y0101821D01*
X0118702Y0101786D01*
X0118783Y0101755D01*
X0118866Y0101727D01*
X0118949Y0101702D01*
X0119034Y0101681D01*
X0119120Y0101664D01*
X0119206Y0101651D01*
X0119293Y0101642D01*
X0119380Y0101636D01*
X0119467Y0101634D01*
X0132467Y0101634D01*
X0132554Y0101636D01*
X0132641Y0101642D01*
X0132728Y0101651D01*
X0132814Y0101664D01*
X0132900Y0101681D01*
X0132985Y0101702D01*
X0133068Y0101727D01*
X0133151Y0101755D01*
X0133232Y0101786D01*
X0133312Y0101821D01*
X0133390Y0101860D01*
X0133467Y0101902D01*
X0133542Y0101947D01*
X0133614Y0101996D01*
X0133685Y0102047D01*
X0133753Y0102102D01*
X0133818Y0102159D01*
X0133881Y0102220D01*
X0133942Y0102283D01*
X0133999Y0102348D01*
X0134054Y0102416D01*
X0134105Y0102487D01*
X0134154Y0102559D01*
X0134199Y0102634D01*
X0134241Y0102711D01*
X0134280Y0102789D01*
X0134315Y0102869D01*
X0134346Y0102950D01*
X0134374Y0103033D01*
X0134399Y0103116D01*
X0134420Y0103201D01*
X0134437Y0103287D01*
X0134450Y0103373D01*
X0134459Y0103460D01*
X0134465Y0103547D01*
X0134467Y0103634D01*
X0105345Y0101867D02*
X0105345Y0097867D01*
X0105343Y0097780D01*
X0105337Y0097693D01*
X0105328Y0097606D01*
X0105315Y0097520D01*
X0105298Y0097434D01*
X0105277Y0097349D01*
X0105252Y0097266D01*
X0105224Y0097183D01*
X0105193Y0097102D01*
X0105158Y0097022D01*
X0105119Y0096944D01*
X0105077Y0096867D01*
X0105032Y0096792D01*
X0104983Y0096720D01*
X0104932Y0096649D01*
X0104877Y0096581D01*
X0104820Y0096516D01*
X0104759Y0096453D01*
X0104696Y0096392D01*
X0104631Y0096335D01*
X0104563Y0096280D01*
X0104492Y0096229D01*
X0104420Y0096180D01*
X0104345Y0096135D01*
X0104268Y0096093D01*
X0104190Y0096054D01*
X0104110Y0096019D01*
X0104029Y0095988D01*
X0103946Y0095960D01*
X0103863Y0095935D01*
X0103778Y0095914D01*
X0103692Y0095897D01*
X0103606Y0095884D01*
X0103519Y0095875D01*
X0103432Y0095869D01*
X0103345Y0095867D01*
X0047345Y0095867D01*
X0042688Y0096610D02*
X0042688Y0097678D01*
X0041621Y0098746D01*
X0039486Y0098746D01*
X0038418Y0097678D01*
X0038418Y0095543D01*
X0039486Y0094475D01*
X0041621Y0094475D01*
X0042688Y0096610D02*
X0038418Y0096610D01*
X0036243Y0095543D02*
X0035175Y0094475D01*
X0031973Y0094475D01*
X0029797Y0094475D02*
X0029797Y0098746D01*
X0031973Y0097678D02*
X0033040Y0098746D01*
X0036243Y0098746D01*
X0033040Y0096610D02*
X0031973Y0097678D01*
X0033040Y0096610D02*
X0035175Y0096610D01*
X0036243Y0095543D01*
X0029797Y0094475D02*
X0026595Y0094475D01*
X0025527Y0095543D01*
X0025527Y0098746D01*
X0023352Y0097678D02*
X0022284Y0098746D01*
X0020149Y0098746D01*
X0019082Y0097678D01*
X0019082Y0095543D01*
X0020149Y0094475D01*
X0022284Y0094475D01*
X0023352Y0095543D01*
X0023352Y0097678D01*
X0016906Y0100881D02*
X0016906Y0094475D01*
X0012636Y0094475D02*
X0012636Y0100881D01*
X0014771Y0098746D01*
X0016906Y0100881D01*
X0045345Y0101867D02*
X0045345Y0097867D01*
X0045347Y0097780D01*
X0045353Y0097693D01*
X0045362Y0097606D01*
X0045375Y0097520D01*
X0045392Y0097434D01*
X0045413Y0097349D01*
X0045438Y0097266D01*
X0045466Y0097183D01*
X0045497Y0097102D01*
X0045532Y0097022D01*
X0045571Y0096944D01*
X0045613Y0096867D01*
X0045658Y0096792D01*
X0045707Y0096720D01*
X0045758Y0096649D01*
X0045813Y0096581D01*
X0045870Y0096516D01*
X0045931Y0096453D01*
X0045994Y0096392D01*
X0046059Y0096335D01*
X0046127Y0096280D01*
X0046198Y0096229D01*
X0046270Y0096180D01*
X0046345Y0096135D01*
X0046422Y0096093D01*
X0046500Y0096054D01*
X0046580Y0096019D01*
X0046661Y0095988D01*
X0046744Y0095960D01*
X0046827Y0095935D01*
X0046912Y0095914D01*
X0046998Y0095897D01*
X0047084Y0095884D01*
X0047171Y0095875D01*
X0047258Y0095869D01*
X0047345Y0095867D01*
X0045345Y0101867D02*
X0045347Y0101954D01*
X0045353Y0102041D01*
X0045362Y0102128D01*
X0045375Y0102214D01*
X0045392Y0102300D01*
X0045413Y0102385D01*
X0045438Y0102468D01*
X0045466Y0102551D01*
X0045497Y0102632D01*
X0045532Y0102712D01*
X0045571Y0102790D01*
X0045613Y0102867D01*
X0045658Y0102942D01*
X0045707Y0103014D01*
X0045758Y0103085D01*
X0045813Y0103153D01*
X0045870Y0103218D01*
X0045931Y0103281D01*
X0045994Y0103342D01*
X0046059Y0103399D01*
X0046127Y0103454D01*
X0046198Y0103505D01*
X0046270Y0103554D01*
X0046345Y0103599D01*
X0046422Y0103641D01*
X0046500Y0103680D01*
X0046580Y0103715D01*
X0046661Y0103746D01*
X0046744Y0103774D01*
X0046827Y0103799D01*
X0046912Y0103820D01*
X0046998Y0103837D01*
X0047084Y0103850D01*
X0047171Y0103859D01*
X0047258Y0103865D01*
X0047345Y0103867D01*
X0103345Y0103867D01*
X0103845Y0103367D02*
X0103845Y0096367D01*
X0096845Y0096367D01*
X0096845Y0103367D01*
X0103845Y0103367D01*
X0103345Y0103867D02*
X0103432Y0103865D01*
X0103519Y0103859D01*
X0103606Y0103850D01*
X0103692Y0103837D01*
X0103778Y0103820D01*
X0103863Y0103799D01*
X0103946Y0103774D01*
X0104029Y0103746D01*
X0104110Y0103715D01*
X0104190Y0103680D01*
X0104268Y0103641D01*
X0104345Y0103599D01*
X0104420Y0103554D01*
X0104492Y0103505D01*
X0104563Y0103454D01*
X0104631Y0103399D01*
X0104696Y0103342D01*
X0104759Y0103281D01*
X0104820Y0103218D01*
X0104877Y0103153D01*
X0104932Y0103085D01*
X0104983Y0103014D01*
X0105032Y0102942D01*
X0105077Y0102867D01*
X0105119Y0102790D01*
X0105158Y0102712D01*
X0105193Y0102632D01*
X0105224Y0102551D01*
X0105252Y0102468D01*
X0105277Y0102385D01*
X0105298Y0102300D01*
X0105315Y0102214D01*
X0105328Y0102128D01*
X0105337Y0102041D01*
X0105343Y0101954D01*
X0105345Y0101867D01*
X0239974Y0063804D02*
X0239974Y0046804D01*
X0239976Y0046744D01*
X0239981Y0046683D01*
X0239990Y0046624D01*
X0240003Y0046565D01*
X0240019Y0046506D01*
X0240039Y0046449D01*
X0240062Y0046394D01*
X0240089Y0046339D01*
X0240118Y0046287D01*
X0240151Y0046236D01*
X0240187Y0046187D01*
X0240225Y0046141D01*
X0240267Y0046097D01*
X0240311Y0046055D01*
X0240357Y0046017D01*
X0240406Y0045981D01*
X0240457Y0045948D01*
X0240509Y0045919D01*
X0240564Y0045892D01*
X0240619Y0045869D01*
X0240676Y0045849D01*
X0240735Y0045833D01*
X0240794Y0045820D01*
X0240853Y0045811D01*
X0240914Y0045806D01*
X0240974Y0045804D01*
X0260974Y0045804D01*
X0261034Y0045806D01*
X0261095Y0045811D01*
X0261154Y0045820D01*
X0261213Y0045833D01*
X0261272Y0045849D01*
X0261329Y0045869D01*
X0261384Y0045892D01*
X0261439Y0045919D01*
X0261491Y0045948D01*
X0261542Y0045981D01*
X0261591Y0046017D01*
X0261637Y0046055D01*
X0261681Y0046097D01*
X0261723Y0046141D01*
X0261761Y0046187D01*
X0261797Y0046236D01*
X0261830Y0046287D01*
X0261859Y0046339D01*
X0261886Y0046394D01*
X0261909Y0046449D01*
X0261929Y0046506D01*
X0261945Y0046565D01*
X0261958Y0046624D01*
X0261967Y0046683D01*
X0261972Y0046744D01*
X0261974Y0046804D01*
X0261974Y0063804D01*
X0261972Y0063864D01*
X0261967Y0063925D01*
X0261958Y0063984D01*
X0261945Y0064043D01*
X0261929Y0064102D01*
X0261909Y0064159D01*
X0261886Y0064214D01*
X0261859Y0064269D01*
X0261830Y0064321D01*
X0261797Y0064372D01*
X0261761Y0064421D01*
X0261723Y0064467D01*
X0261681Y0064511D01*
X0261637Y0064553D01*
X0261591Y0064591D01*
X0261542Y0064627D01*
X0261491Y0064660D01*
X0261439Y0064689D01*
X0261384Y0064716D01*
X0261329Y0064739D01*
X0261272Y0064759D01*
X0261213Y0064775D01*
X0261154Y0064788D01*
X0261095Y0064797D01*
X0261034Y0064802D01*
X0260974Y0064804D01*
X0240974Y0064804D01*
X0240914Y0064802D01*
X0240853Y0064797D01*
X0240794Y0064788D01*
X0240735Y0064775D01*
X0240676Y0064759D01*
X0240619Y0064739D01*
X0240564Y0064716D01*
X0240509Y0064689D01*
X0240457Y0064660D01*
X0240406Y0064627D01*
X0240357Y0064591D01*
X0240311Y0064553D01*
X0240267Y0064511D01*
X0240225Y0064467D01*
X0240187Y0064421D01*
X0240151Y0064372D01*
X0240118Y0064321D01*
X0240089Y0064269D01*
X0240062Y0064214D01*
X0240039Y0064159D01*
X0240019Y0064102D01*
X0240003Y0064043D01*
X0239990Y0063984D01*
X0239981Y0063925D01*
X0239976Y0063864D01*
X0239974Y0063804D01*
X0250974Y0056804D02*
X0250974Y0056304D01*
X0250974Y0054304D02*
X0250974Y0053804D01*
X0256599Y0026079D02*
X0256599Y0019674D01*
X0256599Y0021809D02*
X0260869Y0026079D01*
X0263044Y0022876D02*
X0264112Y0023944D01*
X0266247Y0023944D01*
X0267314Y0022876D01*
X0267314Y0021809D01*
X0263044Y0021809D01*
X0263044Y0022876D02*
X0263044Y0020741D01*
X0264112Y0019674D01*
X0266247Y0019674D01*
X0269490Y0020741D02*
X0270557Y0019674D01*
X0273760Y0019674D01*
X0273760Y0018606D02*
X0272692Y0017539D01*
X0271625Y0017539D01*
X0273760Y0018606D02*
X0273760Y0023944D01*
X0275935Y0023944D02*
X0279138Y0023944D01*
X0280205Y0022876D01*
X0280205Y0020741D01*
X0279138Y0019674D01*
X0275935Y0019674D01*
X0275935Y0026079D01*
X0269490Y0023944D02*
X0269490Y0020741D01*
X0260869Y0019674D02*
X0257666Y0022876D01*
X0282381Y0022876D02*
X0282381Y0020741D01*
X0283448Y0019674D01*
X0285583Y0019674D01*
X0286651Y0020741D01*
X0286651Y0022876D01*
X0285583Y0023944D01*
X0283448Y0023944D01*
X0282381Y0022876D01*
X0288826Y0020741D02*
X0289894Y0021809D01*
X0293096Y0021809D01*
X0293096Y0022876D02*
X0293096Y0019674D01*
X0289894Y0019674D01*
X0288826Y0020741D01*
X0292029Y0023944D02*
X0293096Y0022876D01*
X0292029Y0023944D02*
X0289894Y0023944D01*
X0295272Y0023944D02*
X0295272Y0019674D01*
X0295272Y0021809D02*
X0297407Y0023944D01*
X0298474Y0023944D01*
X0300643Y0022876D02*
X0301710Y0023944D01*
X0304913Y0023944D01*
X0304913Y0026079D02*
X0304913Y0019674D01*
X0301710Y0019674D01*
X0300643Y0020741D01*
X0300643Y0022876D01*
X0290671Y0097070D02*
X0290673Y0097222D01*
X0290679Y0097373D01*
X0290688Y0097524D01*
X0290702Y0097676D01*
X0290719Y0097826D01*
X0290740Y0097976D01*
X0290765Y0098126D01*
X0290793Y0098275D01*
X0290826Y0098423D01*
X0290862Y0098570D01*
X0290901Y0098717D01*
X0290945Y0098862D01*
X0290992Y0099006D01*
X0291043Y0099149D01*
X0291097Y0099290D01*
X0291155Y0099431D01*
X0291216Y0099569D01*
X0291281Y0099706D01*
X0291350Y0099842D01*
X0291421Y0099975D01*
X0291496Y0100107D01*
X0291575Y0100237D01*
X0291656Y0100364D01*
X0291741Y0100490D01*
X0291829Y0100614D01*
X0291920Y0100735D01*
X0292014Y0100854D01*
X0292112Y0100970D01*
X0292212Y0101084D01*
X0292314Y0101196D01*
X0292420Y0101304D01*
X0292528Y0101410D01*
X0292639Y0101514D01*
X0292753Y0101614D01*
X0292869Y0101712D01*
X0292988Y0101806D01*
X0302671Y0097070D02*
X0302669Y0096916D01*
X0302663Y0096762D01*
X0302653Y0096608D01*
X0302639Y0096454D01*
X0302622Y0096301D01*
X0302600Y0096149D01*
X0302574Y0095997D01*
X0302545Y0095845D01*
X0302511Y0095695D01*
X0302474Y0095545D01*
X0302433Y0095397D01*
X0302388Y0095249D01*
X0302339Y0095103D01*
X0302287Y0094958D01*
X0302231Y0094815D01*
X0302171Y0094672D01*
X0302108Y0094532D01*
X0302041Y0094393D01*
X0301970Y0094256D01*
X0301896Y0094121D01*
X0301819Y0093988D01*
X0301738Y0093856D01*
X0301654Y0093727D01*
X0301566Y0093600D01*
X0301475Y0093476D01*
X0301382Y0093354D01*
X0301284Y0093234D01*
X0301184Y0093117D01*
X0301081Y0093002D01*
X0300975Y0092890D01*
X0300867Y0092781D01*
X0300755Y0092675D01*
X0300641Y0092571D01*
X0300524Y0092471D01*
X0300405Y0092373D01*
X0300283Y0092279D01*
X0300158Y0092188D01*
X0302671Y0097070D02*
X0302669Y0097220D01*
X0302663Y0097371D01*
X0302654Y0097521D01*
X0302641Y0097670D01*
X0302624Y0097820D01*
X0302603Y0097969D01*
X0302579Y0098117D01*
X0302551Y0098265D01*
X0302519Y0098412D01*
X0302484Y0098558D01*
X0302444Y0098703D01*
X0302402Y0098847D01*
X0302355Y0098990D01*
X0302305Y0099132D01*
X0302252Y0099273D01*
X0302195Y0099412D01*
X0302135Y0099550D01*
X0302071Y0099686D01*
X0302004Y0099820D01*
X0301933Y0099953D01*
X0301859Y0100084D01*
X0301782Y0100213D01*
X0301701Y0100340D01*
X0301618Y0100465D01*
X0301531Y0100588D01*
X0301442Y0100709D01*
X0301349Y0100827D01*
X0301253Y0100943D01*
X0301155Y0101057D01*
X0301054Y0101168D01*
X0300949Y0101277D01*
X0300843Y0101382D01*
X0300733Y0101486D01*
X0300621Y0101586D01*
X0300507Y0101684D01*
X0300390Y0101778D01*
X0300271Y0101870D01*
X0290671Y0097070D02*
X0290673Y0096918D01*
X0290679Y0096767D01*
X0290688Y0096616D01*
X0290702Y0096464D01*
X0290719Y0096314D01*
X0290740Y0096164D01*
X0290765Y0096014D01*
X0290793Y0095865D01*
X0290826Y0095717D01*
X0290862Y0095570D01*
X0290901Y0095423D01*
X0290945Y0095278D01*
X0290992Y0095134D01*
X0291043Y0094991D01*
X0291097Y0094850D01*
X0291155Y0094709D01*
X0291216Y0094571D01*
X0291281Y0094434D01*
X0291350Y0094298D01*
X0291421Y0094165D01*
X0291496Y0094033D01*
X0291575Y0093903D01*
X0291656Y0093776D01*
X0291741Y0093650D01*
X0291829Y0093526D01*
X0291920Y0093405D01*
X0292014Y0093286D01*
X0292112Y0093170D01*
X0292212Y0093056D01*
X0292314Y0092944D01*
X0292420Y0092836D01*
X0292528Y0092730D01*
X0292639Y0092626D01*
X0292753Y0092526D01*
X0292869Y0092428D01*
X0292988Y0092334D01*
X0264926Y0098934D02*
X0264926Y0104934D01*
X0264924Y0104994D01*
X0264919Y0105055D01*
X0264910Y0105114D01*
X0264897Y0105173D01*
X0264881Y0105232D01*
X0264861Y0105289D01*
X0264838Y0105344D01*
X0264811Y0105399D01*
X0264782Y0105451D01*
X0264749Y0105502D01*
X0264713Y0105551D01*
X0264675Y0105597D01*
X0264633Y0105641D01*
X0264589Y0105683D01*
X0264543Y0105721D01*
X0264494Y0105757D01*
X0264443Y0105790D01*
X0264391Y0105819D01*
X0264336Y0105846D01*
X0264281Y0105869D01*
X0264224Y0105889D01*
X0264165Y0105905D01*
X0264106Y0105918D01*
X0264047Y0105927D01*
X0263986Y0105932D01*
X0263926Y0105934D01*
X0262426Y0105934D01*
X0261926Y0105434D01*
X0247926Y0105434D01*
X0247426Y0105934D01*
X0245926Y0105934D01*
X0245866Y0105932D01*
X0245805Y0105927D01*
X0245746Y0105918D01*
X0245687Y0105905D01*
X0245628Y0105889D01*
X0245571Y0105869D01*
X0245516Y0105846D01*
X0245461Y0105819D01*
X0245409Y0105790D01*
X0245358Y0105757D01*
X0245309Y0105721D01*
X0245263Y0105683D01*
X0245219Y0105641D01*
X0245177Y0105597D01*
X0245139Y0105551D01*
X0245103Y0105502D01*
X0245070Y0105451D01*
X0245041Y0105399D01*
X0245014Y0105344D01*
X0244991Y0105289D01*
X0244971Y0105232D01*
X0244955Y0105173D01*
X0244942Y0105114D01*
X0244933Y0105055D01*
X0244928Y0104994D01*
X0244926Y0104934D01*
X0244926Y0098934D01*
X0244928Y0098874D01*
X0244933Y0098813D01*
X0244942Y0098754D01*
X0244955Y0098695D01*
X0244971Y0098636D01*
X0244991Y0098579D01*
X0245014Y0098524D01*
X0245041Y0098469D01*
X0245070Y0098417D01*
X0245103Y0098366D01*
X0245139Y0098317D01*
X0245177Y0098271D01*
X0245219Y0098227D01*
X0245263Y0098185D01*
X0245309Y0098147D01*
X0245358Y0098111D01*
X0245409Y0098078D01*
X0245461Y0098049D01*
X0245516Y0098022D01*
X0245571Y0097999D01*
X0245628Y0097979D01*
X0245687Y0097963D01*
X0245746Y0097950D01*
X0245805Y0097941D01*
X0245866Y0097936D01*
X0245926Y0097934D01*
X0247426Y0097934D01*
X0247926Y0098434D01*
X0261926Y0098434D01*
X0262426Y0097934D01*
X0263926Y0097934D01*
X0263986Y0097936D01*
X0264047Y0097941D01*
X0264106Y0097950D01*
X0264165Y0097963D01*
X0264224Y0097979D01*
X0264281Y0097999D01*
X0264336Y0098022D01*
X0264391Y0098049D01*
X0264443Y0098078D01*
X0264494Y0098111D01*
X0264543Y0098147D01*
X0264589Y0098185D01*
X0264633Y0098227D01*
X0264675Y0098271D01*
X0264713Y0098317D01*
X0264749Y0098366D01*
X0264782Y0098417D01*
X0264811Y0098469D01*
X0264838Y0098524D01*
X0264861Y0098579D01*
X0264881Y0098636D01*
X0264897Y0098695D01*
X0264910Y0098754D01*
X0264919Y0098813D01*
X0264924Y0098874D01*
X0264926Y0098934D01*
D12*
X0288671Y0097070D02*
X0288673Y0097265D01*
X0288681Y0097461D01*
X0288693Y0097656D01*
X0288709Y0097851D01*
X0288731Y0098046D01*
X0288757Y0098240D01*
X0288788Y0098433D01*
X0288824Y0098625D01*
X0288864Y0098817D01*
X0288909Y0099007D01*
X0288959Y0099196D01*
X0289013Y0099384D01*
X0289072Y0099571D01*
X0289135Y0099756D01*
X0289203Y0099939D01*
X0289276Y0100121D01*
X0289352Y0100301D01*
X0289434Y0100479D01*
X0289519Y0100655D01*
X0289609Y0100829D01*
X0289703Y0101000D01*
X0289801Y0101170D01*
X0289904Y0101336D01*
X0290010Y0101501D01*
X0290120Y0101662D01*
X0290234Y0101821D01*
X0290353Y0101977D01*
X0290474Y0102130D01*
X0290600Y0102280D01*
X0290729Y0102427D01*
X0290862Y0102571D01*
X0290998Y0102711D01*
X0291138Y0102848D01*
X0291281Y0102982D01*
X0291427Y0103112D01*
X0291576Y0103238D01*
X0291729Y0103361D01*
X0291884Y0103480D01*
X0292042Y0103595D01*
X0292203Y0103706D01*
X0292367Y0103813D01*
X0292533Y0103917D01*
X0292702Y0104016D01*
X0304671Y0097070D02*
X0304669Y0096875D01*
X0304662Y0096681D01*
X0304650Y0096487D01*
X0304633Y0096293D01*
X0304612Y0096099D01*
X0304586Y0095906D01*
X0304555Y0095714D01*
X0304520Y0095522D01*
X0304480Y0095332D01*
X0304435Y0095142D01*
X0304386Y0094954D01*
X0304332Y0094767D01*
X0304274Y0094581D01*
X0304211Y0094397D01*
X0304144Y0094214D01*
X0304072Y0094033D01*
X0303996Y0093854D01*
X0303916Y0093677D01*
X0303831Y0093502D01*
X0303742Y0093328D01*
X0303649Y0093158D01*
X0303552Y0092989D01*
X0303450Y0092823D01*
X0303345Y0092659D01*
X0303236Y0092498D01*
X0303123Y0092339D01*
X0303006Y0092184D01*
X0302885Y0092031D01*
X0302760Y0091882D01*
X0302632Y0091735D01*
X0302501Y0091591D01*
X0302366Y0091451D01*
X0302227Y0091314D01*
X0302086Y0091181D01*
X0301941Y0091051D01*
X0301793Y0090924D01*
X0304671Y0097070D02*
X0304669Y0097262D01*
X0304662Y0097454D01*
X0304650Y0097646D01*
X0304634Y0097838D01*
X0304613Y0098029D01*
X0304588Y0098219D01*
X0304558Y0098409D01*
X0304524Y0098598D01*
X0304485Y0098786D01*
X0304441Y0098973D01*
X0304393Y0099159D01*
X0304341Y0099344D01*
X0304284Y0099528D01*
X0304223Y0099710D01*
X0304157Y0099890D01*
X0304087Y0100069D01*
X0304013Y0100247D01*
X0303935Y0100422D01*
X0303852Y0100596D01*
X0303765Y0100767D01*
X0303675Y0100936D01*
X0303580Y0101103D01*
X0303481Y0101268D01*
X0303378Y0101431D01*
X0303271Y0101590D01*
X0303161Y0101748D01*
X0303047Y0101902D01*
X0302929Y0102054D01*
X0302807Y0102203D01*
X0302682Y0102349D01*
X0302554Y0102491D01*
X0302422Y0102631D01*
X0302287Y0102768D01*
X0302148Y0102901D01*
X0302007Y0103031D01*
X0301862Y0103157D01*
X0301714Y0103280D01*
X0301564Y0103399D01*
X0301410Y0103515D01*
X0301254Y0103627D01*
X0301095Y0103735D01*
X0300934Y0103840D01*
X0300770Y0103940D01*
X0300604Y0104036D01*
X0300436Y0104129D01*
X0288671Y0097070D02*
X0288673Y0096877D01*
X0288680Y0096684D01*
X0288692Y0096492D01*
X0288708Y0096299D01*
X0288729Y0096107D01*
X0288755Y0095916D01*
X0288785Y0095726D01*
X0288820Y0095536D01*
X0288859Y0095347D01*
X0288903Y0095159D01*
X0288951Y0094972D01*
X0289004Y0094786D01*
X0289061Y0094602D01*
X0289123Y0094419D01*
X0289189Y0094238D01*
X0289260Y0094058D01*
X0289334Y0093880D01*
X0289413Y0093704D01*
X0289497Y0093530D01*
X0289584Y0093358D01*
X0289676Y0093188D01*
X0289772Y0093021D01*
X0289871Y0092855D01*
X0289975Y0092692D01*
X0290082Y0092532D01*
X0290194Y0092375D01*
X0290309Y0092220D01*
X0290428Y0092068D01*
X0290550Y0091919D01*
X0290676Y0091772D01*
X0290806Y0091629D01*
X0290939Y0091489D01*
X0291075Y0091353D01*
X0291215Y0091219D01*
X0291357Y0091090D01*
X0291503Y0090963D01*
X0253974Y0056304D02*
X0250974Y0056304D01*
X0247974Y0056304D01*
X0247974Y0054304D02*
X0250974Y0054304D01*
X0253974Y0054304D01*
X0119595Y0023309D02*
X0116595Y0023309D01*
X0113595Y0023309D01*
X0113595Y0021309D02*
X0116595Y0021309D01*
X0119595Y0021309D01*
D13*
X0128841Y0023101D02*
X0128841Y0024603D01*
X0129591Y0025353D01*
X0129591Y0026955D02*
X0128841Y0027705D01*
X0128841Y0029207D01*
X0129591Y0029957D01*
X0130342Y0029957D01*
X0133345Y0026955D01*
X0133345Y0029957D01*
X0137730Y0026520D02*
X0137730Y0023117D01*
X0138864Y0023117D02*
X0136595Y0023117D01*
X0136595Y0025385D02*
X0137730Y0026520D01*
X0133345Y0024603D02*
X0132594Y0025353D01*
X0133345Y0024603D02*
X0133345Y0023101D01*
X0132594Y0022351D01*
X0129591Y0022351D01*
X0128841Y0023101D01*
X0140595Y0030117D02*
X0140595Y0034620D01*
X0142847Y0034620D01*
X0143598Y0033870D01*
X0143598Y0032369D01*
X0142847Y0031618D01*
X0140595Y0031618D01*
X0142097Y0031618D02*
X0143598Y0030117D01*
X0145199Y0030117D02*
X0145199Y0034620D01*
X0148202Y0030117D01*
X0148202Y0034620D01*
X0149803Y0034620D02*
X0149803Y0032369D01*
X0151304Y0033119D01*
X0152055Y0033119D01*
X0152806Y0032369D01*
X0152806Y0030867D01*
X0152055Y0030117D01*
X0150554Y0030117D01*
X0149803Y0030867D01*
X0149803Y0034620D02*
X0152806Y0034620D01*
X0101177Y0007485D02*
X0098175Y0010487D01*
X0097424Y0010487D01*
X0097424Y0007485D01*
X0101177Y0007485D02*
X0101928Y0007485D01*
X0101177Y0005883D02*
X0101928Y0005133D01*
X0101928Y0003631D01*
X0101177Y0002881D01*
X0098175Y0002881D01*
X0097424Y0003631D01*
X0097424Y0005133D01*
X0098175Y0005883D01*
X0061843Y0026597D02*
X0061276Y0026030D01*
X0061843Y0026597D02*
X0061843Y0027731D01*
X0061276Y0028298D01*
X0060709Y0028298D01*
X0060142Y0027731D01*
X0060142Y0027164D01*
X0060142Y0027731D02*
X0059575Y0028298D01*
X0059008Y0028298D01*
X0058441Y0027731D01*
X0058441Y0026597D01*
X0059008Y0026030D01*
X0059008Y0036030D02*
X0058441Y0036597D01*
X0058441Y0037731D01*
X0059008Y0038298D01*
X0059575Y0038298D01*
X0061843Y0036030D01*
X0061843Y0038298D01*
X0075440Y0041310D02*
X0075440Y0042812D01*
X0075440Y0042061D02*
X0079193Y0042061D01*
X0079943Y0041310D01*
X0079943Y0040560D01*
X0079193Y0039809D01*
X0079943Y0044413D02*
X0075440Y0044413D01*
X0075440Y0046665D01*
X0076190Y0047416D01*
X0077692Y0047416D01*
X0078442Y0046665D01*
X0078442Y0044413D01*
X0079943Y0049017D02*
X0076941Y0052020D01*
X0076190Y0052020D01*
X0075440Y0051269D01*
X0075440Y0049768D01*
X0076190Y0049017D01*
X0079943Y0049017D02*
X0079943Y0052020D01*
X0061843Y0048298D02*
X0061843Y0046030D01*
X0061843Y0047164D02*
X0058441Y0047164D01*
X0059575Y0046030D01*
X0058973Y0056574D02*
X0058406Y0057141D01*
X0058406Y0058275D01*
X0058973Y0058842D01*
X0059541Y0058842D01*
X0060108Y0058275D01*
X0060675Y0058842D01*
X0061242Y0058842D01*
X0061809Y0058275D01*
X0061809Y0057141D01*
X0061242Y0056574D01*
X0060108Y0057708D02*
X0060108Y0058275D01*
X0058973Y0066574D02*
X0058406Y0067141D01*
X0058406Y0068275D01*
X0058973Y0068842D01*
X0059541Y0068842D01*
X0061809Y0066574D01*
X0061809Y0068842D01*
X0075405Y0071854D02*
X0075405Y0073356D01*
X0075405Y0072605D02*
X0079159Y0072605D01*
X0079909Y0071854D01*
X0079909Y0071104D01*
X0079159Y0070353D01*
X0079909Y0074957D02*
X0075405Y0074957D01*
X0075405Y0077209D01*
X0076156Y0077959D01*
X0077657Y0077959D01*
X0078408Y0077209D01*
X0078408Y0074957D01*
X0079909Y0079561D02*
X0079909Y0082563D01*
X0079909Y0081062D02*
X0075405Y0081062D01*
X0076907Y0079561D01*
X0061809Y0078842D02*
X0061809Y0076574D01*
X0061809Y0077708D02*
X0058406Y0077708D01*
X0059541Y0076574D01*
X0091784Y0090117D02*
X0091784Y0094620D01*
X0094035Y0094620D01*
X0094786Y0093870D01*
X0094786Y0092369D01*
X0094035Y0091618D01*
X0091784Y0091618D01*
X0093285Y0091618D02*
X0094786Y0090117D01*
X0096387Y0090117D02*
X0096387Y0094620D01*
X0099390Y0090117D01*
X0099390Y0094620D01*
X0100991Y0093870D02*
X0101742Y0094620D01*
X0103243Y0094620D01*
X0103994Y0093870D01*
X0103994Y0093119D01*
X0100991Y0090117D01*
X0103994Y0090117D01*
X0106004Y0098217D02*
X0108273Y0098217D01*
X0107139Y0098217D02*
X0107139Y0101620D01*
X0106004Y0100485D01*
X0124009Y0099637D02*
X0124009Y0096635D01*
X0124760Y0095884D01*
X0126261Y0095884D01*
X0127012Y0096635D01*
X0128613Y0096635D02*
X0129364Y0095884D01*
X0130865Y0095884D01*
X0131616Y0096635D01*
X0131616Y0097385D01*
X0130865Y0098136D01*
X0128613Y0098136D01*
X0128613Y0096635D01*
X0128613Y0098136D02*
X0130114Y0099637D01*
X0131616Y0100388D01*
X0127012Y0099637D02*
X0126261Y0100388D01*
X0124760Y0100388D01*
X0124009Y0099637D01*
X0148181Y0112635D02*
X0148931Y0111884D01*
X0150433Y0111884D01*
X0151183Y0112635D01*
X0152785Y0112635D02*
X0153535Y0111884D01*
X0155037Y0111884D01*
X0155787Y0112635D01*
X0155787Y0114136D01*
X0155037Y0114887D01*
X0154286Y0114887D01*
X0152785Y0114136D01*
X0152785Y0116388D01*
X0155787Y0116388D01*
X0151183Y0115637D02*
X0150433Y0116388D01*
X0148931Y0116388D01*
X0148181Y0115637D01*
X0148181Y0112635D01*
X0236784Y0084620D02*
X0236784Y0080117D01*
X0236784Y0081618D02*
X0239035Y0081618D01*
X0239786Y0082369D01*
X0239786Y0083870D01*
X0239035Y0084620D01*
X0236784Y0084620D01*
X0238285Y0081618D02*
X0239786Y0080117D01*
X0241387Y0080117D02*
X0241387Y0084620D01*
X0244390Y0080117D01*
X0244390Y0084620D01*
X0245991Y0083119D02*
X0247493Y0084620D01*
X0247493Y0080117D01*
X0248994Y0080117D02*
X0245991Y0080117D01*
X0251004Y0088217D02*
X0253273Y0088217D01*
X0252139Y0088217D02*
X0252139Y0091620D01*
X0251004Y0090485D01*
X0298417Y0086717D02*
X0302921Y0086717D01*
X0302921Y0085216D02*
X0302921Y0088219D01*
X0299918Y0085216D02*
X0298417Y0086717D01*
X0299168Y0083615D02*
X0298417Y0082864D01*
X0298417Y0080612D01*
X0302921Y0080612D01*
X0302921Y0082864D01*
X0302170Y0083615D01*
X0299168Y0083615D01*
X0298417Y0079011D02*
X0298417Y0076008D01*
X0302921Y0076008D01*
X0302921Y0079011D01*
X0300669Y0077510D02*
X0300669Y0076008D01*
X0302921Y0074407D02*
X0302921Y0071404D01*
X0298417Y0071404D01*
X0238724Y0054160D02*
X0238724Y0051158D01*
X0237974Y0049556D02*
X0238724Y0048805D01*
X0238724Y0047304D01*
X0237974Y0046554D01*
X0234971Y0046554D01*
X0234220Y0047304D01*
X0234220Y0048805D01*
X0234971Y0049556D01*
X0235722Y0051158D02*
X0234220Y0052659D01*
X0238724Y0052659D01*
X0236095Y0054339D02*
X0236095Y0055841D01*
X0236095Y0055090D02*
X0231591Y0055090D01*
X0231591Y0054339D02*
X0231591Y0055841D01*
X0232342Y0057409D02*
X0231591Y0058159D01*
X0231591Y0059661D01*
X0232342Y0060411D01*
X0233093Y0062013D02*
X0231591Y0063514D01*
X0236095Y0063514D01*
X0236095Y0062013D02*
X0236095Y0065015D01*
X0235345Y0060411D02*
X0236095Y0059661D01*
X0236095Y0058159D01*
X0235345Y0057409D01*
X0232342Y0057409D01*
X0159201Y0073165D02*
X0156199Y0073165D01*
X0157700Y0073165D02*
X0157700Y0077669D01*
X0156199Y0076168D01*
X0154597Y0076918D02*
X0154597Y0073916D01*
X0153847Y0073165D01*
X0152345Y0073165D01*
X0151595Y0073916D01*
X0151595Y0076918D01*
X0152345Y0077669D01*
X0153847Y0077669D01*
X0154597Y0076918D01*
X0153096Y0074666D02*
X0154597Y0073165D01*
D14*
X0153731Y0103134D02*
X0153731Y0109134D01*
X0156231Y0109134D02*
X0156231Y0103134D01*
X0127167Y0103134D02*
X0127167Y0109134D01*
X0124667Y0109134D02*
X0124667Y0103134D01*
D15*
X0128553Y0096915D02*
X0152553Y0096915D01*
X0152760Y0096912D01*
X0152967Y0096905D01*
X0153173Y0096892D01*
X0153380Y0096875D01*
X0153585Y0096852D01*
X0153791Y0096824D01*
X0153995Y0096792D01*
X0154199Y0096754D01*
X0154401Y0096712D01*
X0154603Y0096664D01*
X0154803Y0096612D01*
X0155002Y0096555D01*
X0155199Y0096493D01*
X0155395Y0096426D01*
X0155589Y0096354D01*
X0155782Y0096278D01*
X0155972Y0096197D01*
X0156161Y0096111D01*
X0156347Y0096021D01*
X0156531Y0095927D01*
X0156713Y0095827D01*
X0156892Y0095724D01*
X0157069Y0095616D01*
X0157243Y0095504D01*
X0157414Y0095388D01*
X0157583Y0095267D01*
X0157748Y0095143D01*
X0157910Y0095014D01*
X0158069Y0094882D01*
X0158225Y0094746D01*
X0158378Y0094606D01*
X0158527Y0094462D01*
X0158672Y0094315D01*
X0158814Y0094164D01*
X0158952Y0094010D01*
X0159087Y0093852D01*
X0159217Y0093692D01*
X0159343Y0093528D01*
X0159466Y0093361D01*
X0159584Y0093191D01*
X0159699Y0093018D01*
X0159809Y0092843D01*
X0159914Y0092665D01*
X0160016Y0092484D01*
X0160112Y0092302D01*
X0160205Y0092116D01*
X0160293Y0091929D01*
X0160376Y0091739D01*
X0160455Y0091548D01*
X0160529Y0091355D01*
X0160598Y0091159D01*
X0160662Y0090963D01*
X0160722Y0090765D01*
X0160777Y0090565D01*
X0160827Y0090364D01*
X0160872Y0090162D01*
X0160912Y0089959D01*
X0160947Y0089755D01*
X0160977Y0089550D01*
X0161002Y0089345D01*
X0161022Y0089139D01*
X0161037Y0088932D01*
X0161047Y0088725D01*
X0161052Y0088518D01*
X0161052Y0088312D01*
X0161047Y0088105D01*
X0161037Y0087898D01*
X0161022Y0087691D01*
X0161002Y0087485D01*
X0160977Y0087280D01*
X0160947Y0087075D01*
X0160912Y0086871D01*
X0160872Y0086668D01*
X0160827Y0086466D01*
X0160777Y0086265D01*
X0160722Y0086065D01*
X0160662Y0085867D01*
X0160598Y0085671D01*
X0160529Y0085475D01*
X0160455Y0085282D01*
X0160376Y0085091D01*
X0160293Y0084901D01*
X0160205Y0084714D01*
X0160112Y0084528D01*
X0160016Y0084346D01*
X0159914Y0084165D01*
X0159809Y0083987D01*
X0159699Y0083812D01*
X0159584Y0083639D01*
X0159466Y0083469D01*
X0159343Y0083302D01*
X0159217Y0083138D01*
X0159087Y0082978D01*
X0158952Y0082820D01*
X0158814Y0082666D01*
X0158672Y0082515D01*
X0158527Y0082368D01*
X0158378Y0082224D01*
X0158225Y0082084D01*
X0158069Y0081948D01*
X0157910Y0081816D01*
X0157748Y0081687D01*
X0157583Y0081563D01*
X0157414Y0081442D01*
X0157243Y0081326D01*
X0157069Y0081214D01*
X0156892Y0081106D01*
X0156713Y0081003D01*
X0156531Y0080903D01*
X0156347Y0080809D01*
X0156161Y0080719D01*
X0155972Y0080633D01*
X0155782Y0080552D01*
X0155589Y0080476D01*
X0155395Y0080404D01*
X0155199Y0080337D01*
X0155002Y0080275D01*
X0154803Y0080218D01*
X0154603Y0080166D01*
X0154401Y0080118D01*
X0154199Y0080076D01*
X0153995Y0080038D01*
X0153791Y0080006D01*
X0153585Y0079978D01*
X0153380Y0079955D01*
X0153173Y0079938D01*
X0152967Y0079925D01*
X0152760Y0079918D01*
X0152553Y0079915D01*
X0128553Y0079915D01*
X0128346Y0079918D01*
X0128139Y0079925D01*
X0127933Y0079938D01*
X0127726Y0079955D01*
X0127521Y0079978D01*
X0127315Y0080006D01*
X0127111Y0080038D01*
X0126907Y0080076D01*
X0126705Y0080118D01*
X0126503Y0080166D01*
X0126303Y0080218D01*
X0126104Y0080275D01*
X0125907Y0080337D01*
X0125711Y0080404D01*
X0125517Y0080476D01*
X0125324Y0080552D01*
X0125134Y0080633D01*
X0124945Y0080719D01*
X0124759Y0080809D01*
X0124575Y0080903D01*
X0124393Y0081003D01*
X0124214Y0081106D01*
X0124037Y0081214D01*
X0123863Y0081326D01*
X0123692Y0081442D01*
X0123523Y0081563D01*
X0123358Y0081687D01*
X0123196Y0081816D01*
X0123037Y0081948D01*
X0122881Y0082084D01*
X0122728Y0082224D01*
X0122579Y0082368D01*
X0122434Y0082515D01*
X0122292Y0082666D01*
X0122154Y0082820D01*
X0122019Y0082978D01*
X0121889Y0083138D01*
X0121763Y0083302D01*
X0121640Y0083469D01*
X0121522Y0083639D01*
X0121407Y0083812D01*
X0121297Y0083987D01*
X0121192Y0084165D01*
X0121090Y0084346D01*
X0120994Y0084528D01*
X0120901Y0084714D01*
X0120813Y0084901D01*
X0120730Y0085091D01*
X0120651Y0085282D01*
X0120577Y0085475D01*
X0120508Y0085671D01*
X0120444Y0085867D01*
X0120384Y0086065D01*
X0120329Y0086265D01*
X0120279Y0086466D01*
X0120234Y0086668D01*
X0120194Y0086871D01*
X0120159Y0087075D01*
X0120129Y0087280D01*
X0120104Y0087485D01*
X0120084Y0087691D01*
X0120069Y0087898D01*
X0120059Y0088105D01*
X0120054Y0088312D01*
X0120054Y0088518D01*
X0120059Y0088725D01*
X0120069Y0088932D01*
X0120084Y0089139D01*
X0120104Y0089345D01*
X0120129Y0089550D01*
X0120159Y0089755D01*
X0120194Y0089959D01*
X0120234Y0090162D01*
X0120279Y0090364D01*
X0120329Y0090565D01*
X0120384Y0090765D01*
X0120444Y0090963D01*
X0120508Y0091159D01*
X0120577Y0091355D01*
X0120651Y0091548D01*
X0120730Y0091739D01*
X0120813Y0091929D01*
X0120901Y0092116D01*
X0120994Y0092302D01*
X0121090Y0092484D01*
X0121192Y0092665D01*
X0121297Y0092843D01*
X0121407Y0093018D01*
X0121522Y0093191D01*
X0121640Y0093361D01*
X0121763Y0093528D01*
X0121889Y0093692D01*
X0122019Y0093852D01*
X0122154Y0094010D01*
X0122292Y0094164D01*
X0122434Y0094315D01*
X0122579Y0094462D01*
X0122728Y0094606D01*
X0122881Y0094746D01*
X0123037Y0094882D01*
X0123196Y0095014D01*
X0123358Y0095143D01*
X0123523Y0095267D01*
X0123692Y0095388D01*
X0123863Y0095504D01*
X0124037Y0095616D01*
X0124214Y0095724D01*
X0124393Y0095827D01*
X0124575Y0095927D01*
X0124759Y0096021D01*
X0124945Y0096111D01*
X0125134Y0096197D01*
X0125324Y0096278D01*
X0125517Y0096354D01*
X0125711Y0096426D01*
X0125907Y0096493D01*
X0126104Y0096555D01*
X0126303Y0096612D01*
X0126503Y0096664D01*
X0126705Y0096712D01*
X0126907Y0096754D01*
X0127111Y0096792D01*
X0127315Y0096824D01*
X0127521Y0096852D01*
X0127726Y0096875D01*
X0127933Y0096892D01*
X0128139Y0096905D01*
X0128346Y0096912D01*
X0128553Y0096915D01*
D16*
X0059800Y0078158D02*
X0055196Y0078158D01*
X0057498Y0075856D01*
X0057498Y0078926D01*
X0055196Y0074322D02*
X0059800Y0071252D01*
X0059800Y0074322D02*
X0055196Y0071252D01*
X0257784Y0048134D02*
X0257784Y0045064D01*
X0260086Y0045064D01*
X0259318Y0046599D01*
X0259318Y0047366D01*
X0260086Y0048134D01*
X0261620Y0048134D01*
X0262388Y0047366D01*
X0262388Y0045832D01*
X0261620Y0045064D01*
X0262388Y0043530D02*
X0257784Y0040460D01*
X0257784Y0043530D02*
X0262388Y0040460D01*
X0262703Y0093134D02*
X0262703Y0096637D01*
X0261535Y0095469D01*
X0260279Y0094885D02*
X0259696Y0094302D01*
X0257944Y0094302D01*
X0259112Y0094302D02*
X0260279Y0093134D01*
X0261535Y0093134D02*
X0263871Y0093134D01*
X0260279Y0094885D02*
X0260279Y0096053D01*
X0259696Y0096637D01*
X0257944Y0096637D01*
X0257944Y0093134D01*
D17*
X0265676Y0101934D03*
X0244176Y0101934D03*
D18*
X0263375Y0087819D02*
X0263375Y0032701D01*
X0312194Y0032701D01*
X0312194Y0087819D01*
X0263375Y0087819D01*
X0054213Y0087819D02*
X0054213Y0032701D01*
X0005394Y0032701D01*
X0005394Y0087819D01*
X0054213Y0087819D01*
M02*
