G75*
%MOIN*%
%OFA0B0*%
%FSLAX25Y25*%
%IPPOS*%
%LPD*%
%AMOC8*
5,1,8,0,0,1.08239X$1,22.5*
%
%ADD10C,0.00000*%
%ADD11OC8,0.05200*%
%ADD12OC8,0.06200*%
%ADD13C,0.06200*%
%ADD14C,0.05200*%
%ADD15C,0.05600*%
%ADD16C,0.05200*%
%ADD17OC8,0.05543*%
%ADD18C,0.04756*%
%ADD19C,0.01000*%
%ADD20C,0.01600*%
%ADD21C,0.02400*%
D10*
X0005345Y0009867D02*
X0005345Y0112229D01*
X0312432Y0112229D01*
X0312432Y0009867D01*
X0005345Y0009867D01*
D11*
X0116595Y0017309D03*
X0116595Y0027309D03*
X0250974Y0050304D03*
X0250974Y0060304D03*
X0296671Y0092070D03*
X0296671Y0102070D03*
X0269926Y0101934D03*
X0239926Y0101934D03*
X0159931Y0106134D03*
X0149931Y0106134D03*
X0130967Y0106134D03*
X0120967Y0106134D03*
D12*
X0091178Y0017339D03*
D13*
X0091178Y0027339D03*
D14*
X0095345Y0037267D02*
X0095345Y0042467D01*
X0105345Y0042467D02*
X0105345Y0037267D01*
X0115345Y0037267D02*
X0115345Y0042467D01*
X0125345Y0042467D02*
X0125345Y0037267D01*
X0135345Y0037267D02*
X0135345Y0042467D01*
X0145345Y0042467D02*
X0145345Y0037267D01*
X0155345Y0037267D02*
X0155345Y0042467D01*
X0165345Y0042467D02*
X0165345Y0037267D01*
X0175345Y0037267D02*
X0175345Y0042467D01*
X0185345Y0042467D02*
X0185345Y0037267D01*
X0195345Y0037267D02*
X0195345Y0042467D01*
X0205345Y0042467D02*
X0205345Y0037267D01*
X0215345Y0037267D02*
X0215345Y0042467D01*
X0225345Y0042467D02*
X0225345Y0037267D01*
X0185345Y0027467D02*
X0185345Y0022267D01*
X0175345Y0022267D02*
X0175345Y0027467D01*
X0165345Y0027467D02*
X0165345Y0022267D01*
X0155345Y0022267D02*
X0155345Y0027467D01*
X0145345Y0027467D02*
X0145345Y0022267D01*
X0145345Y0067267D02*
X0145345Y0072467D01*
X0135345Y0072467D02*
X0135345Y0067267D01*
X0125345Y0067267D02*
X0125345Y0072467D01*
X0115345Y0072467D02*
X0115345Y0067267D01*
X0105345Y0067267D02*
X0105345Y0072467D01*
X0095345Y0072467D02*
X0095345Y0067267D01*
X0155345Y0067267D02*
X0155345Y0072467D01*
X0165345Y0072467D02*
X0165345Y0067267D01*
X0175345Y0067267D02*
X0175345Y0072467D01*
X0185345Y0072467D02*
X0185345Y0067267D01*
X0195345Y0067267D02*
X0195345Y0072467D01*
X0205345Y0072467D02*
X0205345Y0067267D01*
X0215345Y0067267D02*
X0215345Y0072467D01*
X0225345Y0072467D02*
X0225345Y0067267D01*
X0225345Y0087267D02*
X0225345Y0092467D01*
X0215345Y0092467D02*
X0215345Y0087267D01*
X0205345Y0087267D02*
X0205345Y0092467D01*
X0195345Y0092467D02*
X0195345Y0087267D01*
X0185345Y0087267D02*
X0185345Y0092467D01*
X0175345Y0092467D02*
X0175345Y0087267D01*
X0235345Y0087267D02*
X0235345Y0092467D01*
X0245345Y0092467D02*
X0245345Y0087267D01*
X0100345Y0097267D02*
X0100345Y0102467D01*
X0090345Y0102467D02*
X0090345Y0097267D01*
X0080345Y0097267D02*
X0080345Y0102467D01*
X0070345Y0102467D02*
X0070345Y0097267D01*
X0060345Y0097267D02*
X0060345Y0102467D01*
X0050345Y0102467D02*
X0050345Y0097267D01*
D15*
X0065859Y0079915D02*
X0071459Y0079915D01*
X0071459Y0069915D02*
X0065859Y0069915D01*
X0065859Y0059915D02*
X0071459Y0059915D01*
X0071493Y0049371D02*
X0065893Y0049371D01*
X0065893Y0039371D02*
X0071493Y0039371D01*
X0071493Y0029371D02*
X0065893Y0029371D01*
D16*
X0131053Y0088415D03*
X0150053Y0088415D03*
D17*
X0048307Y0073646D03*
X0038465Y0073646D03*
X0038465Y0065378D03*
X0038465Y0055142D03*
X0038465Y0046874D03*
X0048307Y0046874D03*
X0269280Y0046874D03*
X0279123Y0046874D03*
X0279123Y0055142D03*
X0279123Y0065378D03*
X0279123Y0073646D03*
X0269280Y0073646D03*
D18*
X0294084Y0062638D02*
X0294084Y0057882D01*
X0023504Y0057882D02*
X0023504Y0062638D01*
D19*
X0038465Y0055142D02*
X0038645Y0054867D01*
X0053945Y0054867D01*
X0064745Y0044067D01*
X0082745Y0044067D01*
X0095345Y0031467D01*
X0130445Y0031467D01*
X0143945Y0017967D01*
X0168245Y0017967D01*
X0174545Y0024267D01*
X0175345Y0024867D01*
X0175445Y0025167D01*
X0175445Y0039567D01*
X0175345Y0039867D01*
X0165545Y0039567D02*
X0165345Y0039867D01*
X0165545Y0039567D02*
X0165545Y0025167D01*
X0165345Y0024867D01*
X0155645Y0025167D02*
X0155345Y0024867D01*
X0155645Y0025167D02*
X0155645Y0039567D01*
X0155345Y0039867D01*
X0145745Y0038667D02*
X0145345Y0039867D01*
X0145745Y0043167D01*
X0145211Y0043167D01*
X0145211Y0046942D02*
X0144845Y0047667D01*
X0144565Y0047387D01*
X0145745Y0038667D02*
X0145745Y0025167D01*
X0145345Y0024867D01*
X0116945Y0027867D02*
X0116838Y0027355D01*
X0116595Y0027309D02*
X0116945Y0027867D01*
X0116045Y0017967D02*
X0091745Y0017967D01*
X0091178Y0017339D01*
X0090845Y0026967D02*
X0090845Y0027355D01*
X0091178Y0027339D02*
X0090845Y0026967D01*
X0069245Y0029667D02*
X0068693Y0029371D01*
X0069245Y0029667D02*
X0069245Y0038667D01*
X0068693Y0039371D01*
X0068345Y0039567D01*
X0049445Y0039567D01*
X0042245Y0046767D01*
X0038645Y0046767D01*
X0038465Y0046874D01*
X0068693Y0049371D02*
X0069245Y0048567D01*
X0105245Y0048567D01*
X0113345Y0040467D01*
X0115145Y0040467D01*
X0115345Y0039867D01*
X0116045Y0017967D02*
X0116595Y0017309D01*
X0048545Y0017067D02*
X0047505Y0017162D01*
X0048545Y0017067D02*
X0048545Y0017062D01*
X0130445Y0066567D02*
X0134045Y0062967D01*
X0136745Y0062967D01*
X0140345Y0066567D01*
X0143945Y0062967D01*
X0148445Y0062967D01*
X0155345Y0069867D01*
X0154745Y0070167D01*
X0152945Y0071967D01*
X0150245Y0071967D01*
X0150306Y0072528D01*
X0145745Y0070167D02*
X0145411Y0070167D01*
X0145345Y0069867D02*
X0145745Y0070167D01*
X0140415Y0073827D02*
X0140345Y0073767D01*
X0140345Y0066567D01*
X0135845Y0070167D02*
X0135345Y0069867D01*
X0135520Y0070167D02*
X0135845Y0070167D01*
X0130445Y0071967D02*
X0130525Y0072428D01*
X0130445Y0071967D02*
X0130445Y0066567D01*
X0125345Y0069867D02*
X0125045Y0070167D01*
X0123245Y0070167D01*
X0100745Y0092667D01*
X0098045Y0092667D01*
X0090845Y0099867D01*
X0090345Y0099867D01*
X0088145Y0092667D02*
X0080945Y0099867D01*
X0080345Y0099867D01*
X0078245Y0092667D02*
X0071045Y0099867D01*
X0070345Y0099867D01*
X0061145Y0099867D02*
X0060345Y0099867D01*
X0061145Y0099867D02*
X0090845Y0070167D01*
X0095345Y0070167D01*
X0095345Y0069867D01*
X0103445Y0070167D02*
X0080945Y0092667D01*
X0078245Y0092667D01*
X0088145Y0092667D02*
X0090845Y0092667D01*
X0113345Y0070167D01*
X0115145Y0070167D01*
X0115345Y0069867D01*
X0105345Y0069867D02*
X0105245Y0070167D01*
X0103445Y0070167D01*
X0069245Y0070167D02*
X0068984Y0070167D01*
X0069245Y0070167D02*
X0068659Y0069915D01*
X0068659Y0079915D02*
X0069245Y0080067D01*
X0068584Y0080318D01*
X0038613Y0075723D02*
X0038645Y0074667D01*
X0038465Y0073646D01*
X0038645Y0073767D01*
X0038513Y0073623D01*
X0121445Y0103467D02*
X0125045Y0099867D01*
X0125330Y0099112D01*
X0121445Y0103467D02*
X0121445Y0105267D01*
X0120967Y0106134D01*
X0130967Y0106134D02*
X0131345Y0106167D01*
X0131024Y0105908D01*
X0149931Y0106134D02*
X0150245Y0106167D01*
X0150006Y0106108D01*
X0159245Y0105267D02*
X0159245Y0101667D01*
X0156545Y0098967D01*
X0156200Y0098912D01*
X0159245Y0105267D02*
X0159931Y0106134D01*
X0160145Y0106167D01*
X0242045Y0106167D01*
X0250145Y0098067D01*
X0250145Y0061167D01*
X0250974Y0060304D01*
X0251045Y0061167D01*
X0267245Y0061167D01*
X0278945Y0072867D01*
X0279123Y0073646D01*
X0279845Y0073767D01*
X0296045Y0089967D01*
X0296045Y0091767D01*
X0296671Y0092070D01*
X0296671Y0102070D02*
X0296045Y0102567D01*
X0269945Y0102567D01*
X0269926Y0101934D01*
X0244745Y0089967D02*
X0240245Y0094467D01*
X0240245Y0101667D01*
X0239926Y0101934D01*
X0244745Y0089967D02*
X0245345Y0089867D01*
X0245645Y0089067D01*
X0245645Y0051138D01*
X0250963Y0050285D02*
X0251045Y0050367D01*
X0250974Y0050304D01*
X0279123Y0046874D02*
X0279845Y0046767D01*
X0279481Y0046642D01*
X0215045Y0079167D02*
X0206045Y0070167D01*
X0205345Y0069867D01*
X0196145Y0070167D02*
X0195345Y0069867D01*
X0196145Y0070167D02*
X0206945Y0080967D01*
X0216845Y0080967D01*
X0224945Y0089067D01*
X0225345Y0089867D01*
X0234845Y0089067D02*
X0235345Y0089867D01*
X0234845Y0089067D02*
X0224945Y0079167D01*
X0215045Y0079167D01*
X0208745Y0082767D02*
X0206045Y0082767D01*
X0202445Y0079167D01*
X0196145Y0079167D01*
X0187145Y0070167D01*
X0185345Y0070167D01*
X0185345Y0069867D01*
X0177245Y0070167D02*
X0188045Y0080967D01*
X0197045Y0080967D01*
X0205145Y0089067D01*
X0205345Y0089867D01*
X0208745Y0082767D02*
X0215045Y0089067D01*
X0215345Y0089867D01*
X0195345Y0089867D02*
X0195245Y0089067D01*
X0188945Y0082767D01*
X0179945Y0082767D01*
X0167345Y0070167D01*
X0165545Y0070167D01*
X0165345Y0069867D01*
X0175345Y0069867D02*
X0175445Y0070167D01*
X0177245Y0070167D01*
X0150245Y0088167D02*
X0150053Y0088415D01*
X0150000Y0088412D02*
X0150245Y0088167D01*
X0131345Y0089067D02*
X0131024Y0088418D01*
X0131053Y0088415D02*
X0131345Y0089067D01*
X0185345Y0039867D02*
X0185345Y0024867D01*
D20*
X0150306Y0072528D02*
X0150306Y0080325D01*
X0156200Y0086220D01*
X0156200Y0098912D01*
X0140415Y0109905D02*
X0140415Y0073827D01*
X0130525Y0072428D02*
X0130525Y0080625D01*
X0125330Y0085820D01*
X0125330Y0099112D01*
D21*
X0127824Y0098612D02*
X0104945Y0098612D01*
X0104945Y0096352D02*
X0104945Y0103382D01*
X0104245Y0105072D01*
X0102951Y0106366D01*
X0101352Y0107029D01*
X0116167Y0107029D01*
X0116167Y0106134D01*
X0116167Y0104146D01*
X0118979Y0101334D01*
X0120967Y0101334D01*
X0120967Y0106134D01*
X0116167Y0106134D01*
X0120967Y0106134D01*
X0120967Y0106134D01*
X0120967Y0106134D01*
X0120967Y0101334D01*
X0122955Y0101334D01*
X0125767Y0104146D01*
X0125767Y0106134D01*
X0120967Y0106134D01*
X0120967Y0106134D01*
X0125767Y0106134D01*
X0125767Y0107029D01*
X0126367Y0107029D01*
X0126367Y0104229D01*
X0127824Y0102771D01*
X0127824Y0091692D01*
X0127153Y0091021D01*
X0126453Y0089330D01*
X0126453Y0087500D01*
X0127153Y0085809D01*
X0128447Y0084515D01*
X0130138Y0083815D01*
X0131102Y0083815D01*
X0132320Y0082597D01*
X0132320Y0075947D01*
X0131446Y0075072D01*
X0130745Y0073382D01*
X0130745Y0066352D01*
X0131446Y0064661D01*
X0132740Y0063367D01*
X0134430Y0062667D01*
X0136260Y0062667D01*
X0137951Y0063367D01*
X0139245Y0064661D01*
X0139945Y0066352D01*
X0139945Y0073382D01*
X0139245Y0075072D01*
X0138720Y0075597D01*
X0138720Y0084559D01*
X0138233Y0085735D01*
X0135653Y0088316D01*
X0135653Y0089330D01*
X0134952Y0091021D01*
X0134224Y0091749D01*
X0134224Y0102886D01*
X0135567Y0104229D01*
X0135567Y0107029D01*
X0145331Y0107029D01*
X0145331Y0104229D01*
X0146806Y0102753D01*
X0146806Y0091674D01*
X0146153Y0091021D01*
X0145453Y0089330D01*
X0145453Y0088390D01*
X0142698Y0085635D01*
X0142211Y0084459D01*
X0142211Y0075837D01*
X0141446Y0075072D01*
X0140745Y0073382D01*
X0140745Y0066352D01*
X0141446Y0064661D01*
X0142740Y0063367D01*
X0144430Y0062667D01*
X0146260Y0062667D01*
X0147951Y0063367D01*
X0149245Y0064661D01*
X0149945Y0066352D01*
X0149945Y0073382D01*
X0149245Y0075072D01*
X0148610Y0075707D01*
X0148610Y0082497D01*
X0149928Y0083815D01*
X0150968Y0083815D01*
X0152658Y0084515D01*
X0153952Y0085809D01*
X0154653Y0087500D01*
X0154653Y0089330D01*
X0153952Y0091021D01*
X0153206Y0091767D01*
X0153206Y0102904D01*
X0154531Y0104229D01*
X0154531Y0107029D01*
X0155131Y0107029D01*
X0155131Y0106134D01*
X0155131Y0104146D01*
X0157943Y0101334D01*
X0159931Y0101334D01*
X0161919Y0101334D01*
X0164731Y0104146D01*
X0164731Y0106134D01*
X0164731Y0107029D01*
X0307232Y0107029D01*
X0307232Y0015067D01*
X0121141Y0015067D01*
X0121395Y0015320D01*
X0121395Y0017309D01*
X0121395Y0019297D01*
X0118583Y0022109D01*
X0116595Y0022109D01*
X0116595Y0017309D01*
X0116595Y0017309D01*
X0121395Y0017309D01*
X0116595Y0017309D01*
X0116595Y0017309D01*
X0116595Y0022109D01*
X0114606Y0022109D01*
X0111795Y0019297D01*
X0111795Y0017309D01*
X0116594Y0017309D01*
X0116594Y0017309D01*
X0111795Y0017309D01*
X0111795Y0015320D01*
X0112048Y0015067D01*
X0096401Y0015067D01*
X0096478Y0015143D01*
X0096478Y0017338D01*
X0091178Y0017338D01*
X0091178Y0017339D01*
X0096478Y0017339D01*
X0096478Y0019534D01*
X0093373Y0022639D01*
X0093158Y0022639D01*
X0094067Y0023015D01*
X0095206Y0024155D01*
X0113243Y0024155D01*
X0114689Y0022709D01*
X0118500Y0022709D01*
X0121195Y0025403D01*
X0121195Y0028967D01*
X0129410Y0028967D01*
X0141826Y0016550D01*
X0142529Y0015847D01*
X0143448Y0015467D01*
X0168743Y0015467D01*
X0169661Y0015847D01*
X0172460Y0018646D01*
X0172740Y0018367D01*
X0174430Y0017667D01*
X0176260Y0017667D01*
X0177951Y0018367D01*
X0179245Y0019661D01*
X0179945Y0021352D01*
X0179945Y0028382D01*
X0179245Y0030072D01*
X0177951Y0031366D01*
X0177945Y0031369D01*
X0177945Y0033365D01*
X0177951Y0033367D01*
X0179245Y0034661D01*
X0179945Y0036352D01*
X0179945Y0043382D01*
X0179245Y0045072D01*
X0177951Y0046366D01*
X0176260Y0047067D01*
X0174430Y0047067D01*
X0172740Y0046366D01*
X0171446Y0045072D01*
X0170745Y0043382D01*
X0170745Y0036352D01*
X0171446Y0034661D01*
X0172740Y0033367D01*
X0172945Y0033282D01*
X0172945Y0031451D01*
X0172740Y0031366D01*
X0171446Y0030072D01*
X0170745Y0028382D01*
X0170745Y0024002D01*
X0169945Y0023202D01*
X0169945Y0028382D01*
X0169245Y0030072D01*
X0168045Y0031272D01*
X0168045Y0033461D01*
X0169245Y0034661D01*
X0169945Y0036352D01*
X0169945Y0043382D01*
X0169245Y0045072D01*
X0167951Y0046366D01*
X0166260Y0047067D01*
X0164430Y0047067D01*
X0162740Y0046366D01*
X0161446Y0045072D01*
X0160745Y0043382D01*
X0160745Y0036352D01*
X0161446Y0034661D01*
X0162740Y0033367D01*
X0163045Y0033240D01*
X0163045Y0031493D01*
X0162740Y0031366D01*
X0161446Y0030072D01*
X0160745Y0028382D01*
X0160745Y0021352D01*
X0161112Y0020467D01*
X0159579Y0020467D01*
X0159945Y0021352D01*
X0159945Y0028382D01*
X0159245Y0030072D01*
X0158145Y0031172D01*
X0158145Y0033561D01*
X0159245Y0034661D01*
X0159945Y0036352D01*
X0159945Y0043382D01*
X0159245Y0045072D01*
X0157951Y0046366D01*
X0156260Y0047067D01*
X0154430Y0047067D01*
X0152740Y0046366D01*
X0151446Y0045072D01*
X0150745Y0043382D01*
X0150745Y0036352D01*
X0151446Y0034661D01*
X0152740Y0033367D01*
X0153145Y0033199D01*
X0153145Y0031534D01*
X0152740Y0031366D01*
X0151446Y0030072D01*
X0150745Y0028382D01*
X0150745Y0021352D01*
X0151112Y0020467D01*
X0149579Y0020467D01*
X0149945Y0021352D01*
X0149945Y0028382D01*
X0149245Y0030072D01*
X0148245Y0031072D01*
X0148245Y0033661D01*
X0149245Y0034661D01*
X0149945Y0036352D01*
X0149945Y0043382D01*
X0149245Y0045072D01*
X0148556Y0045762D01*
X0150732Y0047938D01*
X0246834Y0047938D01*
X0247809Y0046964D01*
X0247809Y0043903D01*
X0248296Y0042727D01*
X0260085Y0030938D01*
X0260985Y0030038D01*
X0262161Y0029551D01*
X0275421Y0029551D01*
X0276597Y0030038D01*
X0281294Y0034735D01*
X0282194Y0035635D01*
X0282681Y0036811D01*
X0282681Y0043685D01*
X0283895Y0044898D01*
X0283895Y0048851D01*
X0281737Y0051008D01*
X0283895Y0053166D01*
X0283895Y0057119D01*
X0281099Y0059914D01*
X0277146Y0059914D01*
X0274351Y0057119D01*
X0274351Y0053166D01*
X0276509Y0051008D01*
X0274351Y0048851D01*
X0274351Y0044898D01*
X0276281Y0042968D01*
X0276281Y0038773D01*
X0273459Y0035951D01*
X0264123Y0035951D01*
X0254209Y0045865D01*
X0254209Y0047033D01*
X0255574Y0048398D01*
X0255574Y0052209D01*
X0252880Y0054904D01*
X0249069Y0054904D01*
X0248504Y0054338D01*
X0248145Y0054338D01*
X0248145Y0056344D01*
X0248986Y0055504D01*
X0250974Y0055504D01*
X0250974Y0060303D01*
X0250974Y0060303D01*
X0250974Y0055504D01*
X0252962Y0055504D01*
X0255774Y0058315D01*
X0255774Y0060304D01*
X0255774Y0062292D01*
X0252962Y0065104D01*
X0250974Y0065104D01*
X0248986Y0065104D01*
X0248145Y0064263D01*
X0248145Y0083561D01*
X0249245Y0084661D01*
X0249945Y0086352D01*
X0249945Y0093382D01*
X0249245Y0095072D01*
X0247951Y0096366D01*
X0246260Y0097067D01*
X0244430Y0097067D01*
X0242745Y0096369D01*
X0242745Y0098248D01*
X0244526Y0100028D01*
X0244526Y0103839D01*
X0241832Y0106534D01*
X0238021Y0106534D01*
X0235326Y0103839D01*
X0235326Y0100028D01*
X0237745Y0097609D01*
X0237745Y0096451D01*
X0236260Y0097067D01*
X0234430Y0097067D01*
X0232740Y0096366D01*
X0231446Y0095072D01*
X0230745Y0093382D01*
X0230745Y0088502D01*
X0229945Y0087702D01*
X0229945Y0093382D01*
X0229245Y0095072D01*
X0227951Y0096366D01*
X0226260Y0097067D01*
X0224430Y0097067D01*
X0222740Y0096366D01*
X0221446Y0095072D01*
X0220745Y0093382D01*
X0220745Y0088402D01*
X0219945Y0087602D01*
X0219945Y0093382D01*
X0219245Y0095072D01*
X0217951Y0096366D01*
X0216260Y0097067D01*
X0214430Y0097067D01*
X0212740Y0096366D01*
X0211446Y0095072D01*
X0210745Y0093382D01*
X0210745Y0088302D01*
X0209945Y0087502D01*
X0209945Y0093382D01*
X0209245Y0095072D01*
X0207951Y0096366D01*
X0206260Y0097067D01*
X0204430Y0097067D01*
X0202740Y0096366D01*
X0201446Y0095072D01*
X0200745Y0093382D01*
X0200745Y0088202D01*
X0199945Y0087402D01*
X0199945Y0093382D01*
X0199245Y0095072D01*
X0197951Y0096366D01*
X0196260Y0097067D01*
X0194430Y0097067D01*
X0192740Y0096366D01*
X0191446Y0095072D01*
X0190745Y0093382D01*
X0190745Y0088102D01*
X0189945Y0087302D01*
X0189945Y0093382D01*
X0189245Y0095072D01*
X0187951Y0096366D01*
X0186260Y0097067D01*
X0184430Y0097067D01*
X0182740Y0096366D01*
X0181446Y0095072D01*
X0180745Y0093382D01*
X0180745Y0086352D01*
X0181195Y0085267D01*
X0179496Y0085267D01*
X0179945Y0086352D01*
X0179945Y0093382D01*
X0179245Y0095072D01*
X0177951Y0096366D01*
X0176260Y0097067D01*
X0174430Y0097067D01*
X0172740Y0096366D01*
X0171446Y0095072D01*
X0170745Y0093382D01*
X0170745Y0086352D01*
X0171446Y0084661D01*
X0172740Y0083367D01*
X0174430Y0082667D01*
X0176260Y0082667D01*
X0176345Y0082702D01*
X0168980Y0075337D01*
X0167951Y0076366D01*
X0166260Y0077067D01*
X0164430Y0077067D01*
X0162740Y0076366D01*
X0161446Y0075072D01*
X0160745Y0073382D01*
X0160745Y0066352D01*
X0161446Y0064661D01*
X0162740Y0063367D01*
X0164430Y0062667D01*
X0166260Y0062667D01*
X0167951Y0063367D01*
X0169245Y0064661D01*
X0169945Y0066352D01*
X0169945Y0069231D01*
X0170745Y0070031D01*
X0170745Y0066352D01*
X0171446Y0064661D01*
X0172740Y0063367D01*
X0174430Y0062667D01*
X0176260Y0062667D01*
X0177951Y0063367D01*
X0179245Y0064661D01*
X0179945Y0066352D01*
X0179945Y0069331D01*
X0180745Y0070131D01*
X0180745Y0066352D01*
X0181446Y0064661D01*
X0182740Y0063367D01*
X0184430Y0062667D01*
X0186260Y0062667D01*
X0187951Y0063367D01*
X0189245Y0064661D01*
X0189945Y0066352D01*
X0189945Y0069431D01*
X0190745Y0070231D01*
X0190745Y0066352D01*
X0191446Y0064661D01*
X0192740Y0063367D01*
X0194430Y0062667D01*
X0196260Y0062667D01*
X0197951Y0063367D01*
X0199245Y0064661D01*
X0199945Y0066352D01*
X0199945Y0070431D01*
X0200745Y0071231D01*
X0200745Y0066352D01*
X0201446Y0064661D01*
X0202740Y0063367D01*
X0204430Y0062667D01*
X0206260Y0062667D01*
X0207951Y0063367D01*
X0209245Y0064661D01*
X0209945Y0066352D01*
X0209945Y0070531D01*
X0210745Y0071331D01*
X0210745Y0066352D01*
X0211446Y0064661D01*
X0212740Y0063367D01*
X0214430Y0062667D01*
X0216260Y0062667D01*
X0217951Y0063367D01*
X0219245Y0064661D01*
X0219945Y0066352D01*
X0219945Y0073382D01*
X0219245Y0075072D01*
X0217951Y0076366D01*
X0217226Y0076667D01*
X0223465Y0076667D01*
X0222740Y0076366D01*
X0221446Y0075072D01*
X0220745Y0073382D01*
X0220745Y0066352D01*
X0221446Y0064661D01*
X0222740Y0063367D01*
X0224430Y0062667D01*
X0226260Y0062667D01*
X0227951Y0063367D01*
X0229245Y0064661D01*
X0229945Y0066352D01*
X0229945Y0073382D01*
X0229245Y0075072D01*
X0227951Y0076366D01*
X0226334Y0077036D01*
X0226361Y0077047D01*
X0232710Y0083396D01*
X0232740Y0083367D01*
X0234430Y0082667D01*
X0236260Y0082667D01*
X0237951Y0083367D01*
X0239245Y0084661D01*
X0239945Y0086352D01*
X0239945Y0091231D01*
X0240745Y0090431D01*
X0240745Y0086352D01*
X0241446Y0084661D01*
X0242740Y0083367D01*
X0243145Y0083199D01*
X0243145Y0054338D01*
X0148770Y0054338D01*
X0147594Y0053851D01*
X0146694Y0052951D01*
X0145110Y0051367D01*
X0142426Y0054051D01*
X0141250Y0054538D01*
X0093987Y0054538D01*
X0075887Y0072638D01*
X0075267Y0072895D01*
X0074178Y0073984D01*
X0072414Y0074715D01*
X0072184Y0074715D01*
X0072184Y0075115D01*
X0072414Y0075115D01*
X0074178Y0075846D01*
X0075528Y0077196D01*
X0076259Y0078960D01*
X0076259Y0080870D01*
X0076013Y0081463D01*
X0089429Y0068047D01*
X0090348Y0067667D01*
X0090745Y0067667D01*
X0090745Y0066352D01*
X0091446Y0064661D01*
X0092740Y0063367D01*
X0094430Y0062667D01*
X0096260Y0062667D01*
X0097951Y0063367D01*
X0099245Y0064661D01*
X0099945Y0066352D01*
X0099945Y0070131D01*
X0100745Y0069331D01*
X0100745Y0066352D01*
X0101446Y0064661D01*
X0102740Y0063367D01*
X0104430Y0062667D01*
X0106260Y0062667D01*
X0107951Y0063367D01*
X0109245Y0064661D01*
X0109945Y0066352D01*
X0109945Y0070031D01*
X0110745Y0069231D01*
X0110745Y0066352D01*
X0111446Y0064661D01*
X0112740Y0063367D01*
X0114430Y0062667D01*
X0116260Y0062667D01*
X0117951Y0063367D01*
X0119245Y0064661D01*
X0119945Y0066352D01*
X0119945Y0069931D01*
X0120745Y0069131D01*
X0120745Y0066352D01*
X0121446Y0064661D01*
X0122740Y0063367D01*
X0124430Y0062667D01*
X0126260Y0062667D01*
X0127951Y0063367D01*
X0129245Y0064661D01*
X0129945Y0066352D01*
X0129945Y0073382D01*
X0129245Y0075072D01*
X0127951Y0076366D01*
X0126260Y0077067D01*
X0124430Y0077067D01*
X0122740Y0076366D01*
X0121660Y0075287D01*
X0103266Y0093682D01*
X0104245Y0094661D01*
X0104945Y0096352D01*
X0104888Y0096213D02*
X0127824Y0096213D01*
X0127824Y0093814D02*
X0103399Y0093814D01*
X0105531Y0091416D02*
X0127548Y0091416D01*
X0126453Y0089017D02*
X0107930Y0089017D01*
X0110328Y0086619D02*
X0126818Y0086619D01*
X0129159Y0084220D02*
X0112727Y0084220D01*
X0115126Y0081822D02*
X0132320Y0081822D01*
X0132320Y0079423D02*
X0117524Y0079423D01*
X0119923Y0077025D02*
X0124330Y0077025D01*
X0126361Y0077025D02*
X0132320Y0077025D01*
X0131261Y0074626D02*
X0129430Y0074626D01*
X0129945Y0072228D02*
X0130745Y0072228D01*
X0130745Y0069829D02*
X0129945Y0069829D01*
X0129945Y0067431D02*
X0130745Y0067431D01*
X0131292Y0065032D02*
X0129399Y0065032D01*
X0121292Y0065032D02*
X0119399Y0065032D01*
X0119945Y0067431D02*
X0120745Y0067431D01*
X0120047Y0069829D02*
X0119945Y0069829D01*
X0110745Y0067431D02*
X0109945Y0067431D01*
X0109945Y0069829D02*
X0110147Y0069829D01*
X0100745Y0067431D02*
X0099945Y0067431D01*
X0099945Y0069829D02*
X0100247Y0069829D01*
X0090745Y0067431D02*
X0081094Y0067431D01*
X0078696Y0069829D02*
X0087647Y0069829D01*
X0085248Y0072228D02*
X0076297Y0072228D01*
X0074074Y0069925D02*
X0092661Y0051338D01*
X0140614Y0051338D01*
X0144565Y0047387D01*
X0145211Y0046741D01*
X0145211Y0046942D01*
X0149407Y0051138D01*
X0245645Y0051138D01*
X0250109Y0051138D01*
X0250963Y0050285D01*
X0251009Y0050239D01*
X0251009Y0044540D01*
X0262798Y0032751D01*
X0274785Y0032751D01*
X0279481Y0037448D01*
X0279481Y0046642D01*
X0279182Y0046941D01*
X0274351Y0045844D02*
X0274052Y0045844D01*
X0274052Y0044898D02*
X0271257Y0042103D01*
X0267304Y0042103D01*
X0264509Y0044898D01*
X0264509Y0048851D01*
X0267304Y0051646D01*
X0271257Y0051646D01*
X0274052Y0048851D01*
X0274052Y0044898D01*
X0272600Y0043446D02*
X0275804Y0043446D01*
X0276281Y0041047D02*
X0259027Y0041047D01*
X0261425Y0038649D02*
X0276157Y0038649D01*
X0273758Y0036250D02*
X0263824Y0036250D01*
X0257171Y0033852D02*
X0228436Y0033852D01*
X0227951Y0033367D02*
X0229245Y0034661D01*
X0229945Y0036352D01*
X0229945Y0043382D01*
X0229245Y0045072D01*
X0227951Y0046366D01*
X0226260Y0047067D01*
X0224430Y0047067D01*
X0222740Y0046366D01*
X0221446Y0045072D01*
X0220745Y0043382D01*
X0220745Y0036352D01*
X0221446Y0034661D01*
X0222740Y0033367D01*
X0224430Y0032667D01*
X0226260Y0032667D01*
X0227951Y0033367D01*
X0222255Y0033852D02*
X0218436Y0033852D01*
X0217951Y0033367D02*
X0219245Y0034661D01*
X0219945Y0036352D01*
X0219945Y0043382D01*
X0219245Y0045072D01*
X0217951Y0046366D01*
X0216260Y0047067D01*
X0214430Y0047067D01*
X0212740Y0046366D01*
X0211446Y0045072D01*
X0210745Y0043382D01*
X0210745Y0036352D01*
X0211446Y0034661D01*
X0212740Y0033367D01*
X0214430Y0032667D01*
X0216260Y0032667D01*
X0217951Y0033367D01*
X0212255Y0033852D02*
X0208436Y0033852D01*
X0207951Y0033367D02*
X0206260Y0032667D01*
X0204430Y0032667D01*
X0202740Y0033367D01*
X0201446Y0034661D01*
X0200745Y0036352D01*
X0200745Y0043382D01*
X0201446Y0045072D01*
X0202740Y0046366D01*
X0204430Y0047067D01*
X0206260Y0047067D01*
X0207951Y0046366D01*
X0209245Y0045072D01*
X0209945Y0043382D01*
X0209945Y0036352D01*
X0209245Y0034661D01*
X0207951Y0033367D01*
X0202255Y0033852D02*
X0198436Y0033852D01*
X0197951Y0033367D02*
X0196260Y0032667D01*
X0194430Y0032667D01*
X0192740Y0033367D01*
X0191446Y0034661D01*
X0190745Y0036352D01*
X0190745Y0043382D01*
X0191446Y0045072D01*
X0192740Y0046366D01*
X0194430Y0047067D01*
X0196260Y0047067D01*
X0197951Y0046366D01*
X0199245Y0045072D01*
X0199945Y0043382D01*
X0199945Y0036352D01*
X0199245Y0034661D01*
X0197951Y0033367D01*
X0192255Y0033852D02*
X0188436Y0033852D01*
X0187951Y0033367D02*
X0189245Y0034661D01*
X0189945Y0036352D01*
X0189945Y0043382D01*
X0189245Y0045072D01*
X0187951Y0046366D01*
X0186260Y0047067D01*
X0184430Y0047067D01*
X0182740Y0046366D01*
X0181446Y0045072D01*
X0180745Y0043382D01*
X0180745Y0036352D01*
X0181446Y0034661D01*
X0182740Y0033367D01*
X0182845Y0033323D01*
X0182845Y0031410D01*
X0182740Y0031366D01*
X0181446Y0030072D01*
X0180745Y0028382D01*
X0180745Y0021352D01*
X0181446Y0019661D01*
X0182740Y0018367D01*
X0184430Y0017667D01*
X0186260Y0017667D01*
X0187951Y0018367D01*
X0189245Y0019661D01*
X0189945Y0021352D01*
X0189945Y0028382D01*
X0189245Y0030072D01*
X0187951Y0031366D01*
X0187845Y0031410D01*
X0187845Y0033323D01*
X0187951Y0033367D01*
X0187845Y0031453D02*
X0259570Y0031453D01*
X0254773Y0036250D02*
X0229903Y0036250D01*
X0229945Y0038649D02*
X0252374Y0038649D01*
X0249976Y0041047D02*
X0229945Y0041047D01*
X0229919Y0043446D02*
X0247998Y0043446D01*
X0247809Y0045844D02*
X0228473Y0045844D01*
X0222218Y0045844D02*
X0218473Y0045844D01*
X0219919Y0043446D02*
X0220772Y0043446D01*
X0220745Y0041047D02*
X0219945Y0041047D01*
X0219945Y0038649D02*
X0220745Y0038649D01*
X0220787Y0036250D02*
X0219903Y0036250D01*
X0210787Y0036250D02*
X0209903Y0036250D01*
X0209945Y0038649D02*
X0210745Y0038649D01*
X0210745Y0041047D02*
X0209945Y0041047D01*
X0209919Y0043446D02*
X0210772Y0043446D01*
X0212218Y0045844D02*
X0208473Y0045844D01*
X0202218Y0045844D02*
X0198473Y0045844D01*
X0199919Y0043446D02*
X0200772Y0043446D01*
X0200745Y0041047D02*
X0199945Y0041047D01*
X0199945Y0038649D02*
X0200745Y0038649D01*
X0200787Y0036250D02*
X0199903Y0036250D01*
X0190787Y0036250D02*
X0189903Y0036250D01*
X0189945Y0038649D02*
X0190745Y0038649D01*
X0190745Y0041047D02*
X0189945Y0041047D01*
X0189919Y0043446D02*
X0190772Y0043446D01*
X0192218Y0045844D02*
X0188473Y0045844D01*
X0182218Y0045844D02*
X0178473Y0045844D01*
X0179919Y0043446D02*
X0180772Y0043446D01*
X0180745Y0041047D02*
X0179945Y0041047D01*
X0179945Y0038649D02*
X0180745Y0038649D01*
X0180787Y0036250D02*
X0179903Y0036250D01*
X0178436Y0033852D02*
X0182255Y0033852D01*
X0182845Y0031453D02*
X0177945Y0031453D01*
X0179667Y0029055D02*
X0181024Y0029055D01*
X0180745Y0026656D02*
X0179945Y0026656D01*
X0179945Y0024258D02*
X0180745Y0024258D01*
X0180745Y0021859D02*
X0179945Y0021859D01*
X0179045Y0019461D02*
X0181646Y0019461D01*
X0189045Y0019461D02*
X0307232Y0019461D01*
X0307232Y0021859D02*
X0189945Y0021859D01*
X0189945Y0024258D02*
X0307232Y0024258D01*
X0307232Y0026656D02*
X0189945Y0026656D01*
X0189667Y0029055D02*
X0307232Y0029055D01*
X0307232Y0031453D02*
X0278012Y0031453D01*
X0280411Y0033852D02*
X0307232Y0033852D01*
X0307232Y0036250D02*
X0282449Y0036250D01*
X0282681Y0038649D02*
X0307232Y0038649D01*
X0307232Y0041047D02*
X0282681Y0041047D01*
X0282681Y0043446D02*
X0307232Y0043446D01*
X0307232Y0045844D02*
X0283895Y0045844D01*
X0283895Y0048243D02*
X0307232Y0048243D01*
X0307232Y0050641D02*
X0282104Y0050641D01*
X0283769Y0053040D02*
X0307232Y0053040D01*
X0307232Y0055438D02*
X0297810Y0055438D01*
X0297795Y0055402D02*
X0298462Y0057012D01*
X0298462Y0063509D01*
X0297795Y0065118D01*
X0296564Y0066350D01*
X0294954Y0067016D01*
X0293213Y0067016D01*
X0291604Y0066350D01*
X0290372Y0065118D01*
X0289706Y0063509D01*
X0289706Y0057012D01*
X0290372Y0055402D01*
X0291604Y0054171D01*
X0293213Y0053504D01*
X0294954Y0053504D01*
X0296564Y0054171D01*
X0297795Y0055402D01*
X0298462Y0057837D02*
X0307232Y0057837D01*
X0307232Y0060235D02*
X0298462Y0060235D01*
X0298462Y0062634D02*
X0307232Y0062634D01*
X0307232Y0065032D02*
X0297831Y0065032D01*
X0290337Y0065032D02*
X0283895Y0065032D01*
X0283895Y0063402D02*
X0283895Y0067355D01*
X0281879Y0069371D01*
X0284095Y0071587D01*
X0284095Y0073646D01*
X0279123Y0073646D01*
X0279123Y0073646D01*
X0274151Y0073646D01*
X0274151Y0071587D01*
X0276367Y0069371D01*
X0274351Y0067355D01*
X0274351Y0063402D01*
X0277146Y0060607D01*
X0281099Y0060607D01*
X0283895Y0063402D01*
X0283127Y0062634D02*
X0289706Y0062634D01*
X0289706Y0060235D02*
X0255774Y0060235D01*
X0255774Y0060304D02*
X0250974Y0060304D01*
X0250974Y0065104D01*
X0250974Y0060304D01*
X0250974Y0060304D01*
X0255774Y0060304D01*
X0250974Y0060304D02*
X0250974Y0060304D01*
X0250974Y0060235D02*
X0250974Y0060235D01*
X0250974Y0057837D02*
X0250974Y0057837D01*
X0255296Y0057837D02*
X0275069Y0057837D01*
X0274351Y0055438D02*
X0248145Y0055438D01*
X0243145Y0055438D02*
X0093087Y0055438D01*
X0090688Y0057837D02*
X0243145Y0057837D01*
X0243145Y0060235D02*
X0088290Y0060235D01*
X0085891Y0062634D02*
X0154070Y0062634D01*
X0154221Y0062585D02*
X0154968Y0062467D01*
X0155345Y0062467D01*
X0155345Y0069866D01*
X0155345Y0069866D01*
X0155345Y0069867D02*
X0150545Y0069867D01*
X0155345Y0069867D01*
X0155345Y0077267D01*
X0154968Y0077267D01*
X0154221Y0077148D01*
X0153503Y0076915D01*
X0152830Y0076572D01*
X0152218Y0076128D01*
X0151684Y0075594D01*
X0151240Y0074982D01*
X0150897Y0074309D01*
X0150664Y0073591D01*
X0150545Y0072844D01*
X0150545Y0069867D01*
X0150545Y0066889D01*
X0150664Y0066143D01*
X0150897Y0065424D01*
X0151240Y0064751D01*
X0151684Y0064140D01*
X0152218Y0063605D01*
X0152830Y0063161D01*
X0153503Y0062818D01*
X0154221Y0062585D01*
X0155345Y0062634D02*
X0155345Y0062634D01*
X0155345Y0062467D02*
X0155723Y0062467D01*
X0156469Y0062585D01*
X0157188Y0062818D01*
X0157861Y0063161D01*
X0158472Y0063605D01*
X0159007Y0064140D01*
X0159451Y0064751D01*
X0159794Y0065424D01*
X0160027Y0066143D01*
X0160145Y0066889D01*
X0160145Y0069867D01*
X0160145Y0072844D01*
X0160027Y0073591D01*
X0159794Y0074309D01*
X0159451Y0074982D01*
X0159007Y0075594D01*
X0158472Y0076128D01*
X0157861Y0076572D01*
X0157188Y0076915D01*
X0156469Y0077148D01*
X0155723Y0077267D01*
X0155345Y0077267D01*
X0155345Y0069867D01*
X0155345Y0069867D01*
X0155345Y0069867D01*
X0160145Y0069867D01*
X0155345Y0069867D01*
X0155345Y0069867D01*
X0155345Y0069866D02*
X0155345Y0062467D01*
X0156620Y0062634D02*
X0243145Y0062634D01*
X0243145Y0065032D02*
X0229399Y0065032D01*
X0229945Y0067431D02*
X0243145Y0067431D01*
X0243145Y0069829D02*
X0229945Y0069829D01*
X0229945Y0072228D02*
X0243145Y0072228D01*
X0243145Y0074626D02*
X0229430Y0074626D01*
X0226361Y0077025D02*
X0243145Y0077025D01*
X0243145Y0079423D02*
X0228738Y0079423D01*
X0231136Y0081822D02*
X0243145Y0081822D01*
X0241886Y0084220D02*
X0238805Y0084220D01*
X0239945Y0086619D02*
X0240745Y0086619D01*
X0240745Y0089017D02*
X0239945Y0089017D01*
X0230745Y0089017D02*
X0229945Y0089017D01*
X0229945Y0091416D02*
X0230745Y0091416D01*
X0230925Y0093814D02*
X0229766Y0093814D01*
X0228104Y0096213D02*
X0232586Y0096213D01*
X0236743Y0098612D02*
X0153206Y0098612D01*
X0153206Y0101010D02*
X0235326Y0101010D01*
X0235326Y0103409D02*
X0163994Y0103409D01*
X0159931Y0103409D02*
X0159931Y0103409D01*
X0155868Y0103409D02*
X0153711Y0103409D01*
X0154531Y0105807D02*
X0155131Y0105807D01*
X0155131Y0106134D02*
X0159931Y0106134D01*
X0159931Y0106134D01*
X0164731Y0106134D01*
X0159931Y0106134D01*
X0159931Y0101334D01*
X0159931Y0106134D01*
X0159931Y0106134D01*
X0159931Y0106134D01*
X0155131Y0106134D01*
X0150106Y0106207D02*
X0150006Y0106108D01*
X0150006Y0088418D01*
X0150000Y0088412D01*
X0145411Y0083823D01*
X0145411Y0070167D01*
X0145411Y0069730D01*
X0140745Y0069829D02*
X0139945Y0069829D01*
X0139945Y0067431D02*
X0140745Y0067431D01*
X0141292Y0065032D02*
X0139399Y0065032D01*
X0135520Y0069830D02*
X0135520Y0070167D01*
X0135520Y0083923D01*
X0131024Y0088418D01*
X0131024Y0105908D01*
X0130825Y0106108D01*
X0135567Y0105807D02*
X0145331Y0105807D01*
X0146151Y0103409D02*
X0134747Y0103409D01*
X0134224Y0101010D02*
X0146806Y0101010D01*
X0146806Y0098612D02*
X0134224Y0098612D01*
X0134224Y0096213D02*
X0146806Y0096213D01*
X0146806Y0093814D02*
X0134224Y0093814D01*
X0134557Y0091416D02*
X0146548Y0091416D01*
X0145453Y0089017D02*
X0135653Y0089017D01*
X0137349Y0086619D02*
X0143681Y0086619D01*
X0142211Y0084220D02*
X0138720Y0084220D01*
X0138720Y0081822D02*
X0142211Y0081822D01*
X0142211Y0079423D02*
X0138720Y0079423D01*
X0138720Y0077025D02*
X0142211Y0077025D01*
X0141261Y0074626D02*
X0139430Y0074626D01*
X0139945Y0072228D02*
X0140745Y0072228D01*
X0149430Y0074626D02*
X0151059Y0074626D01*
X0155345Y0074626D02*
X0155345Y0074626D01*
X0155345Y0072228D02*
X0155345Y0072228D01*
X0150545Y0072228D02*
X0149945Y0072228D01*
X0149945Y0069829D02*
X0150545Y0069829D01*
X0155345Y0069829D02*
X0155345Y0069829D01*
X0155345Y0067431D02*
X0155345Y0067431D01*
X0150545Y0067431D02*
X0149945Y0067431D01*
X0149399Y0065032D02*
X0151097Y0065032D01*
X0155345Y0065032D02*
X0155345Y0065032D01*
X0159594Y0065032D02*
X0161292Y0065032D01*
X0160745Y0067431D02*
X0160145Y0067431D01*
X0160145Y0069829D02*
X0160745Y0069829D01*
X0160745Y0072228D02*
X0160145Y0072228D01*
X0159632Y0074626D02*
X0161261Y0074626D01*
X0164330Y0077025D02*
X0156849Y0077025D01*
X0155345Y0077025D02*
X0155345Y0077025D01*
X0153841Y0077025D02*
X0148610Y0077025D01*
X0148610Y0079423D02*
X0173067Y0079423D01*
X0170668Y0077025D02*
X0166361Y0077025D01*
X0175465Y0081822D02*
X0148610Y0081822D01*
X0151946Y0084220D02*
X0171886Y0084220D01*
X0170745Y0086619D02*
X0154288Y0086619D01*
X0154653Y0089017D02*
X0170745Y0089017D01*
X0170745Y0091416D02*
X0153557Y0091416D01*
X0153206Y0093814D02*
X0170925Y0093814D01*
X0172586Y0096213D02*
X0153206Y0096213D01*
X0159931Y0105807D02*
X0159931Y0105807D01*
X0164731Y0105807D02*
X0237294Y0105807D01*
X0242558Y0105807D02*
X0267294Y0105807D01*
X0268021Y0106534D02*
X0265326Y0103839D01*
X0265326Y0100028D01*
X0268021Y0097334D01*
X0271832Y0097334D01*
X0274526Y0100028D01*
X0274526Y0100067D01*
X0292169Y0100067D01*
X0294765Y0097470D01*
X0298576Y0097470D01*
X0301271Y0100165D01*
X0301271Y0103975D01*
X0298576Y0106670D01*
X0294765Y0106670D01*
X0293162Y0105067D01*
X0273299Y0105067D01*
X0271832Y0106534D01*
X0268021Y0106534D01*
X0272558Y0105807D02*
X0293902Y0105807D01*
X0299439Y0105807D02*
X0307232Y0105807D01*
X0307232Y0103409D02*
X0301271Y0103409D01*
X0301271Y0101010D02*
X0307232Y0101010D01*
X0307232Y0098612D02*
X0299718Y0098612D01*
X0298659Y0096870D02*
X0296671Y0096870D01*
X0296671Y0092070D01*
X0296671Y0092070D01*
X0301471Y0092070D01*
X0301471Y0090082D01*
X0298659Y0087270D01*
X0296671Y0087270D01*
X0296671Y0092070D01*
X0301471Y0092070D01*
X0301471Y0094058D01*
X0298659Y0096870D01*
X0299316Y0096213D02*
X0307232Y0096213D01*
X0307232Y0093814D02*
X0301471Y0093814D01*
X0296671Y0093814D02*
X0296671Y0093814D01*
X0296671Y0092070D02*
X0296671Y0096870D01*
X0294683Y0096870D01*
X0291871Y0094058D01*
X0291871Y0092070D01*
X0291871Y0090082D01*
X0294683Y0087270D01*
X0296671Y0087270D01*
X0296671Y0092070D01*
X0296671Y0092070D01*
X0296671Y0092070D01*
X0291871Y0092070D01*
X0296671Y0092070D01*
X0296671Y0092070D01*
X0296671Y0091416D02*
X0296671Y0091416D01*
X0301471Y0091416D02*
X0307232Y0091416D01*
X0307232Y0089017D02*
X0300406Y0089017D01*
X0296671Y0089017D02*
X0296671Y0089017D01*
X0292935Y0089017D02*
X0249945Y0089017D01*
X0249945Y0086619D02*
X0307232Y0086619D01*
X0307232Y0084220D02*
X0248805Y0084220D01*
X0248145Y0081822D02*
X0307232Y0081822D01*
X0307232Y0079423D02*
X0248145Y0079423D01*
X0248145Y0077025D02*
X0265911Y0077025D01*
X0267304Y0078418D02*
X0264509Y0075623D01*
X0264509Y0071670D01*
X0267304Y0068874D01*
X0271257Y0068874D01*
X0274052Y0071670D01*
X0274052Y0075623D01*
X0271257Y0078418D01*
X0267304Y0078418D01*
X0272650Y0077025D02*
X0275471Y0077025D01*
X0274151Y0075705D02*
X0274151Y0073646D01*
X0279123Y0073646D01*
X0279123Y0073646D01*
X0284095Y0073646D01*
X0284095Y0075705D01*
X0281182Y0078618D01*
X0279123Y0078618D01*
X0277064Y0078618D01*
X0274151Y0075705D01*
X0274151Y0074626D02*
X0274052Y0074626D01*
X0279123Y0074626D02*
X0279123Y0074626D01*
X0279123Y0073646D02*
X0279123Y0078618D01*
X0279123Y0073646D01*
X0279123Y0073646D01*
X0274151Y0072228D02*
X0274052Y0072228D01*
X0272212Y0069829D02*
X0275909Y0069829D01*
X0274427Y0067431D02*
X0248145Y0067431D01*
X0248145Y0069829D02*
X0266349Y0069829D01*
X0264509Y0072228D02*
X0248145Y0072228D01*
X0248145Y0074626D02*
X0264509Y0074626D01*
X0279123Y0077025D02*
X0279123Y0077025D01*
X0282775Y0077025D02*
X0307232Y0077025D01*
X0307232Y0074626D02*
X0284095Y0074626D01*
X0284095Y0072228D02*
X0307232Y0072228D01*
X0307232Y0069829D02*
X0282337Y0069829D01*
X0283819Y0067431D02*
X0307232Y0067431D01*
X0289706Y0057837D02*
X0283176Y0057837D01*
X0283895Y0055438D02*
X0290357Y0055438D01*
X0276142Y0050641D02*
X0272262Y0050641D01*
X0274052Y0048243D02*
X0274351Y0048243D01*
X0266299Y0050641D02*
X0255574Y0050641D01*
X0255419Y0048243D02*
X0264509Y0048243D01*
X0264509Y0045844D02*
X0254230Y0045844D01*
X0256628Y0043446D02*
X0265961Y0043446D01*
X0274477Y0053040D02*
X0254743Y0053040D01*
X0255432Y0062634D02*
X0275119Y0062634D01*
X0274351Y0065032D02*
X0253034Y0065032D01*
X0250974Y0065032D02*
X0250974Y0065032D01*
X0248915Y0065032D02*
X0248145Y0065032D01*
X0250974Y0062634D02*
X0250974Y0062634D01*
X0221292Y0065032D02*
X0219399Y0065032D01*
X0219945Y0067431D02*
X0220745Y0067431D01*
X0220745Y0069829D02*
X0219945Y0069829D01*
X0219945Y0072228D02*
X0220745Y0072228D01*
X0221261Y0074626D02*
X0219430Y0074626D01*
X0210745Y0069829D02*
X0209945Y0069829D01*
X0209945Y0067431D02*
X0210745Y0067431D01*
X0211292Y0065032D02*
X0209399Y0065032D01*
X0201292Y0065032D02*
X0199399Y0065032D01*
X0199945Y0067431D02*
X0200745Y0067431D01*
X0200745Y0069829D02*
X0199945Y0069829D01*
X0190745Y0069829D02*
X0190344Y0069829D01*
X0189945Y0067431D02*
X0190745Y0067431D01*
X0191292Y0065032D02*
X0189399Y0065032D01*
X0181292Y0065032D02*
X0179399Y0065032D01*
X0179945Y0067431D02*
X0180745Y0067431D01*
X0180745Y0069829D02*
X0180444Y0069829D01*
X0170745Y0069829D02*
X0170544Y0069829D01*
X0170745Y0067431D02*
X0169945Y0067431D01*
X0169399Y0065032D02*
X0171292Y0065032D01*
X0146783Y0053040D02*
X0143438Y0053040D01*
X0139288Y0048138D02*
X0141853Y0045574D01*
X0141900Y0045527D01*
X0141446Y0045072D01*
X0140745Y0043382D01*
X0140745Y0036352D01*
X0141446Y0034661D01*
X0142740Y0033367D01*
X0143245Y0033157D01*
X0143245Y0031576D01*
X0142740Y0031366D01*
X0141446Y0030072D01*
X0140745Y0028382D01*
X0140745Y0024702D01*
X0131861Y0033586D01*
X0130943Y0033967D01*
X0128551Y0033967D01*
X0129245Y0034661D01*
X0129945Y0036352D01*
X0129945Y0043382D01*
X0129245Y0045072D01*
X0127951Y0046366D01*
X0126260Y0047067D01*
X0124430Y0047067D01*
X0122740Y0046366D01*
X0121446Y0045072D01*
X0120745Y0043382D01*
X0120745Y0036352D01*
X0121446Y0034661D01*
X0122140Y0033967D01*
X0118551Y0033967D01*
X0119245Y0034661D01*
X0119945Y0036352D01*
X0119945Y0043382D01*
X0119245Y0045072D01*
X0117951Y0046366D01*
X0116260Y0047067D01*
X0114430Y0047067D01*
X0112740Y0046366D01*
X0111860Y0045487D01*
X0109209Y0048138D01*
X0139288Y0048138D01*
X0137861Y0046572D02*
X0137188Y0046915D01*
X0136469Y0047148D01*
X0135723Y0047267D01*
X0135345Y0047267D01*
X0134968Y0047267D01*
X0134221Y0047148D01*
X0133503Y0046915D01*
X0132830Y0046572D01*
X0132218Y0046128D01*
X0131684Y0045594D01*
X0131240Y0044982D01*
X0130897Y0044309D01*
X0130664Y0043591D01*
X0130545Y0042844D01*
X0130545Y0039867D01*
X0135345Y0039867D01*
X0135345Y0047267D01*
X0135345Y0039867D01*
X0135345Y0039867D01*
X0135345Y0039867D01*
X0130545Y0039867D01*
X0130545Y0036889D01*
X0130664Y0036143D01*
X0130897Y0035424D01*
X0131240Y0034751D01*
X0131684Y0034140D01*
X0132218Y0033605D01*
X0132830Y0033161D01*
X0133503Y0032818D01*
X0134221Y0032585D01*
X0134968Y0032467D01*
X0135345Y0032467D01*
X0135345Y0039866D01*
X0135345Y0039866D01*
X0135345Y0032467D01*
X0135723Y0032467D01*
X0136469Y0032585D01*
X0137188Y0032818D01*
X0137861Y0033161D01*
X0138472Y0033605D01*
X0139007Y0034140D01*
X0139451Y0034751D01*
X0139794Y0035424D01*
X0140027Y0036143D01*
X0140145Y0036889D01*
X0140145Y0039867D01*
X0140145Y0042844D01*
X0140027Y0043591D01*
X0139794Y0044309D01*
X0139451Y0044982D01*
X0139007Y0045594D01*
X0138472Y0046128D01*
X0137861Y0046572D01*
X0138756Y0045844D02*
X0141582Y0045844D01*
X0145211Y0046741D02*
X0145211Y0043167D01*
X0145211Y0039846D01*
X0145211Y0039746D01*
X0145211Y0039846D02*
X0145411Y0039646D01*
X0140745Y0038649D02*
X0140145Y0038649D01*
X0140145Y0039867D02*
X0135345Y0039867D01*
X0140145Y0039867D01*
X0140145Y0041047D02*
X0140745Y0041047D01*
X0140772Y0043446D02*
X0140050Y0043446D01*
X0135345Y0043446D02*
X0135345Y0043446D01*
X0130641Y0043446D02*
X0129919Y0043446D01*
X0129945Y0041047D02*
X0130545Y0041047D01*
X0135345Y0041047D02*
X0135345Y0041047D01*
X0135345Y0039867D02*
X0135345Y0039867D01*
X0135345Y0038649D02*
X0135345Y0038649D01*
X0130545Y0038649D02*
X0129945Y0038649D01*
X0129903Y0036250D02*
X0130646Y0036250D01*
X0135345Y0036250D02*
X0135345Y0036250D01*
X0135345Y0033852D02*
X0135345Y0033852D01*
X0131972Y0033852D02*
X0131220Y0033852D01*
X0133994Y0031453D02*
X0142949Y0031453D01*
X0148245Y0031453D02*
X0152950Y0031453D01*
X0158145Y0031453D02*
X0162950Y0031453D01*
X0168045Y0031453D02*
X0172945Y0031453D01*
X0172255Y0033852D02*
X0168436Y0033852D01*
X0169903Y0036250D02*
X0170787Y0036250D01*
X0170745Y0038649D02*
X0169945Y0038649D01*
X0169945Y0041047D02*
X0170745Y0041047D01*
X0170772Y0043446D02*
X0169919Y0043446D01*
X0168473Y0045844D02*
X0172218Y0045844D01*
X0162218Y0045844D02*
X0158473Y0045844D01*
X0159919Y0043446D02*
X0160772Y0043446D01*
X0160745Y0041047D02*
X0159945Y0041047D01*
X0159945Y0038649D02*
X0160745Y0038649D01*
X0160787Y0036250D02*
X0159903Y0036250D01*
X0158436Y0033852D02*
X0162255Y0033852D01*
X0161024Y0029055D02*
X0159667Y0029055D01*
X0159945Y0026656D02*
X0160745Y0026656D01*
X0160745Y0024258D02*
X0159945Y0024258D01*
X0159945Y0021859D02*
X0160745Y0021859D01*
X0169945Y0024258D02*
X0170745Y0024258D01*
X0170745Y0026656D02*
X0169945Y0026656D01*
X0169667Y0029055D02*
X0171024Y0029055D01*
X0152255Y0033852D02*
X0148436Y0033852D01*
X0149903Y0036250D02*
X0150787Y0036250D01*
X0150745Y0038649D02*
X0149945Y0038649D01*
X0149945Y0041047D02*
X0150745Y0041047D01*
X0150772Y0043446D02*
X0149919Y0043446D01*
X0148638Y0045844D02*
X0152218Y0045844D01*
X0135345Y0045844D02*
X0135345Y0045844D01*
X0131935Y0045844D02*
X0128473Y0045844D01*
X0122218Y0045844D02*
X0118473Y0045844D01*
X0119919Y0043446D02*
X0120772Y0043446D01*
X0120745Y0041047D02*
X0119945Y0041047D01*
X0119945Y0038649D02*
X0120745Y0038649D01*
X0120787Y0036250D02*
X0119903Y0036250D01*
X0136393Y0029055D02*
X0141024Y0029055D01*
X0140745Y0026656D02*
X0138791Y0026656D01*
X0134119Y0024258D02*
X0120049Y0024258D01*
X0121195Y0026656D02*
X0131720Y0026656D01*
X0136517Y0021859D02*
X0118832Y0021859D01*
X0116595Y0021859D02*
X0116595Y0021859D01*
X0114357Y0021859D02*
X0094152Y0021859D01*
X0089198Y0022639D02*
X0088982Y0022639D01*
X0085878Y0019534D01*
X0085878Y0017339D01*
X0091178Y0017339D01*
X0091178Y0017338D01*
X0085878Y0017338D01*
X0085878Y0015143D01*
X0085954Y0015067D01*
X0077905Y0015067D01*
X0086993Y0024155D01*
X0087149Y0024155D01*
X0088289Y0023015D01*
X0089198Y0022639D01*
X0088203Y0021859D02*
X0084698Y0021859D01*
X0085878Y0019461D02*
X0082299Y0019461D01*
X0079901Y0017062D02*
X0085878Y0017062D01*
X0096478Y0017062D02*
X0111795Y0017062D01*
X0111958Y0019461D02*
X0096478Y0019461D01*
X0090845Y0027355D02*
X0085668Y0027355D01*
X0075375Y0017062D01*
X0048545Y0017062D01*
X0047605Y0017062D01*
X0047505Y0017162D02*
X0030821Y0033246D01*
X0030821Y0071025D01*
X0033419Y0073623D01*
X0038513Y0073623D01*
X0038613Y0073623D02*
X0038613Y0075723D01*
X0043209Y0080318D01*
X0068584Y0080318D01*
X0068984Y0079919D01*
X0068984Y0070167D01*
X0068984Y0070025D01*
X0068884Y0069925D01*
X0074074Y0069925D01*
X0072627Y0074626D02*
X0082850Y0074626D01*
X0080451Y0077025D02*
X0075358Y0077025D01*
X0076259Y0079423D02*
X0078053Y0079423D01*
X0083493Y0065032D02*
X0091292Y0065032D01*
X0099399Y0065032D02*
X0101292Y0065032D01*
X0109399Y0065032D02*
X0111292Y0065032D01*
X0111503Y0045844D02*
X0112218Y0045844D01*
X0087026Y0036250D02*
X0075406Y0036250D01*
X0075307Y0036114D02*
X0075770Y0036750D01*
X0076127Y0037452D01*
X0076370Y0038200D01*
X0076493Y0038977D01*
X0076493Y0039371D01*
X0076493Y0039764D01*
X0076370Y0040542D01*
X0076127Y0041290D01*
X0075986Y0041567D01*
X0081710Y0041567D01*
X0090838Y0032439D01*
X0090163Y0032439D01*
X0088289Y0031662D01*
X0087181Y0030555D01*
X0085031Y0030555D01*
X0083855Y0030067D01*
X0082955Y0029167D01*
X0074050Y0020262D01*
X0048900Y0020262D01*
X0034021Y0034606D01*
X0034021Y0044287D01*
X0036405Y0041903D01*
X0038464Y0041903D01*
X0038464Y0046874D01*
X0038465Y0046874D01*
X0038465Y0046875D01*
X0043436Y0046875D01*
X0043436Y0048934D01*
X0041220Y0051150D01*
X0042437Y0052367D01*
X0052910Y0052367D01*
X0062364Y0042912D01*
X0062080Y0042628D01*
X0061617Y0041992D01*
X0061260Y0041290D01*
X0061017Y0040542D01*
X0060893Y0039764D01*
X0060893Y0039371D01*
X0068693Y0039371D01*
X0068693Y0039371D01*
X0060893Y0039371D01*
X0060893Y0038977D01*
X0061017Y0038200D01*
X0061260Y0037452D01*
X0061617Y0036750D01*
X0062080Y0036114D01*
X0062636Y0035557D01*
X0063273Y0035095D01*
X0063974Y0034737D01*
X0064723Y0034494D01*
X0065500Y0034371D01*
X0064723Y0034248D01*
X0063974Y0034005D01*
X0063273Y0033647D01*
X0062636Y0033185D01*
X0062080Y0032628D01*
X0061617Y0031992D01*
X0061260Y0031290D01*
X0061017Y0030542D01*
X0060893Y0029764D01*
X0060893Y0029371D01*
X0068693Y0029371D01*
X0068693Y0029371D01*
X0060893Y0029371D01*
X0060893Y0028977D01*
X0061017Y0028200D01*
X0061260Y0027452D01*
X0061617Y0026750D01*
X0062080Y0026114D01*
X0062636Y0025557D01*
X0063273Y0025095D01*
X0063974Y0024737D01*
X0064723Y0024494D01*
X0065500Y0024371D01*
X0068693Y0024371D01*
X0068693Y0029371D01*
X0068693Y0034371D01*
X0065500Y0034371D01*
X0068693Y0034371D01*
X0068693Y0039371D01*
X0068694Y0039371D01*
X0076493Y0039371D01*
X0068694Y0039371D01*
X0068694Y0039371D01*
X0068694Y0034371D01*
X0068694Y0029371D01*
X0076493Y0029371D01*
X0076493Y0029764D01*
X0076370Y0030542D01*
X0076127Y0031290D01*
X0075770Y0031992D01*
X0075307Y0032628D01*
X0074751Y0033185D01*
X0074114Y0033647D01*
X0073413Y0034005D01*
X0072664Y0034248D01*
X0071887Y0034371D01*
X0072664Y0034494D01*
X0073413Y0034737D01*
X0074114Y0035095D01*
X0074751Y0035557D01*
X0075307Y0036114D01*
X0073713Y0033852D02*
X0089425Y0033852D01*
X0088080Y0031453D02*
X0076044Y0031453D01*
X0076493Y0029371D02*
X0068694Y0029371D01*
X0068694Y0029371D01*
X0068693Y0029371D01*
X0068694Y0029371D01*
X0068694Y0024371D01*
X0071887Y0024371D01*
X0072664Y0024494D01*
X0073413Y0024737D01*
X0074114Y0025095D01*
X0074751Y0025557D01*
X0075307Y0026114D01*
X0075770Y0026750D01*
X0076127Y0027452D01*
X0076370Y0028200D01*
X0076493Y0028977D01*
X0076493Y0029371D01*
X0076493Y0029055D02*
X0082843Y0029055D01*
X0080444Y0026656D02*
X0075701Y0026656D01*
X0078046Y0024258D02*
X0044755Y0024258D01*
X0042267Y0026656D02*
X0061685Y0026656D01*
X0060893Y0029055D02*
X0039779Y0029055D01*
X0037291Y0031453D02*
X0061343Y0031453D01*
X0063674Y0033852D02*
X0034803Y0033852D01*
X0034021Y0036250D02*
X0061980Y0036250D01*
X0060946Y0038649D02*
X0034021Y0038649D01*
X0034021Y0041047D02*
X0061181Y0041047D01*
X0061831Y0043446D02*
X0051627Y0043446D01*
X0050284Y0042103D02*
X0053079Y0044898D01*
X0053079Y0048851D01*
X0050284Y0051646D01*
X0046331Y0051646D01*
X0043535Y0048851D01*
X0043535Y0044898D01*
X0046331Y0042103D01*
X0050284Y0042103D01*
X0044988Y0043446D02*
X0042067Y0043446D01*
X0043436Y0044815D02*
X0040524Y0041903D01*
X0038465Y0041903D01*
X0038465Y0046874D01*
X0043436Y0046874D01*
X0043436Y0044815D01*
X0043436Y0045844D02*
X0043535Y0045844D01*
X0038465Y0045844D02*
X0038464Y0045844D01*
X0038464Y0043446D02*
X0038465Y0043446D01*
X0034862Y0043446D02*
X0034021Y0043446D01*
X0043436Y0048243D02*
X0043535Y0048243D01*
X0045326Y0050641D02*
X0041729Y0050641D01*
X0051288Y0050641D02*
X0054635Y0050641D01*
X0053079Y0048243D02*
X0057034Y0048243D01*
X0059432Y0045844D02*
X0053079Y0045844D01*
X0068693Y0038649D02*
X0068694Y0038649D01*
X0068693Y0036250D02*
X0068694Y0036250D01*
X0068694Y0034371D02*
X0071887Y0034371D01*
X0068694Y0034371D01*
X0068693Y0033852D02*
X0068694Y0033852D01*
X0068693Y0031453D02*
X0068694Y0031453D01*
X0068693Y0029055D02*
X0068694Y0029055D01*
X0068693Y0026656D02*
X0068694Y0026656D01*
X0075647Y0021859D02*
X0047243Y0021859D01*
X0076441Y0038649D02*
X0084628Y0038649D01*
X0082229Y0041047D02*
X0076206Y0041047D01*
X0090845Y0027355D02*
X0116838Y0027355D01*
X0116595Y0019461D02*
X0116595Y0019461D01*
X0121231Y0019461D02*
X0138916Y0019461D01*
X0141314Y0017062D02*
X0121395Y0017062D01*
X0141826Y0016550D02*
X0141826Y0016550D01*
X0149945Y0021859D02*
X0150745Y0021859D01*
X0150745Y0024258D02*
X0149945Y0024258D01*
X0149945Y0026656D02*
X0150745Y0026656D01*
X0151024Y0029055D02*
X0149667Y0029055D01*
X0142255Y0033852D02*
X0138719Y0033852D01*
X0140044Y0036250D02*
X0140787Y0036250D01*
X0170876Y0017062D02*
X0307232Y0017062D01*
X0180745Y0086619D02*
X0179945Y0086619D01*
X0179945Y0089017D02*
X0180745Y0089017D01*
X0180745Y0091416D02*
X0179945Y0091416D01*
X0179766Y0093814D02*
X0180925Y0093814D01*
X0182586Y0096213D02*
X0178104Y0096213D01*
X0188104Y0096213D02*
X0192586Y0096213D01*
X0190925Y0093814D02*
X0189766Y0093814D01*
X0189945Y0091416D02*
X0190745Y0091416D01*
X0190745Y0089017D02*
X0189945Y0089017D01*
X0199945Y0089017D02*
X0200745Y0089017D01*
X0200745Y0091416D02*
X0199945Y0091416D01*
X0199766Y0093814D02*
X0200925Y0093814D01*
X0202586Y0096213D02*
X0198104Y0096213D01*
X0208104Y0096213D02*
X0212586Y0096213D01*
X0210925Y0093814D02*
X0209766Y0093814D01*
X0209945Y0091416D02*
X0210745Y0091416D01*
X0210745Y0089017D02*
X0209945Y0089017D01*
X0219945Y0089017D02*
X0220745Y0089017D01*
X0220745Y0091416D02*
X0219945Y0091416D01*
X0219766Y0093814D02*
X0220925Y0093814D01*
X0222586Y0096213D02*
X0218104Y0096213D01*
X0243109Y0098612D02*
X0266743Y0098612D01*
X0265326Y0101010D02*
X0244526Y0101010D01*
X0244526Y0103409D02*
X0265326Y0103409D01*
X0273109Y0098612D02*
X0293624Y0098612D01*
X0294025Y0096213D02*
X0248104Y0096213D01*
X0249766Y0093814D02*
X0291871Y0093814D01*
X0291871Y0091416D02*
X0249945Y0091416D01*
X0296671Y0096213D02*
X0296671Y0096213D01*
X0127824Y0101010D02*
X0104945Y0101010D01*
X0104934Y0103409D02*
X0116904Y0103409D01*
X0116167Y0105807D02*
X0103510Y0105807D01*
X0120967Y0105807D02*
X0120967Y0105807D01*
X0125767Y0105807D02*
X0126367Y0105807D01*
X0127187Y0103409D02*
X0125030Y0103409D01*
X0120967Y0103409D02*
X0120967Y0103409D01*
M02*
