G75*
%MOIN*%
%OFA0B0*%
%FSLAX25Y25*%
%IPPOS*%
%LPD*%
%AMOC8*
5,1,8,0,0,1.08239X$1,22.5*
%
%ADD10C,0.00000*%
%ADD11OC8,0.06000*%
%ADD12OC8,0.07000*%
%ADD13C,0.07000*%
%ADD14C,0.06000*%
%ADD15C,0.06400*%
%ADD16C,0.06000*%
%ADD17OC8,0.06343*%
%ADD18C,0.05556*%
D10*
X0005345Y0009867D02*
X0005345Y0112229D01*
X0312432Y0112229D01*
X0312432Y0009867D01*
X0005345Y0009867D01*
D11*
X0116595Y0017309D03*
X0116595Y0027309D03*
X0250974Y0050304D03*
X0250974Y0060304D03*
X0296671Y0092070D03*
X0296671Y0102070D03*
X0269926Y0101934D03*
X0239926Y0101934D03*
X0159931Y0106134D03*
X0149931Y0106134D03*
X0130967Y0106134D03*
X0120967Y0106134D03*
D12*
X0091178Y0017339D03*
D13*
X0091178Y0027339D03*
D14*
X0095345Y0037267D02*
X0095345Y0042467D01*
X0105345Y0042467D02*
X0105345Y0037267D01*
X0115345Y0037267D02*
X0115345Y0042467D01*
X0125345Y0042467D02*
X0125345Y0037267D01*
X0135345Y0037267D02*
X0135345Y0042467D01*
X0145345Y0042467D02*
X0145345Y0037267D01*
X0155345Y0037267D02*
X0155345Y0042467D01*
X0165345Y0042467D02*
X0165345Y0037267D01*
X0175345Y0037267D02*
X0175345Y0042467D01*
X0185345Y0042467D02*
X0185345Y0037267D01*
X0195345Y0037267D02*
X0195345Y0042467D01*
X0205345Y0042467D02*
X0205345Y0037267D01*
X0215345Y0037267D02*
X0215345Y0042467D01*
X0225345Y0042467D02*
X0225345Y0037267D01*
X0185345Y0027467D02*
X0185345Y0022267D01*
X0175345Y0022267D02*
X0175345Y0027467D01*
X0165345Y0027467D02*
X0165345Y0022267D01*
X0155345Y0022267D02*
X0155345Y0027467D01*
X0145345Y0027467D02*
X0145345Y0022267D01*
X0145345Y0067267D02*
X0145345Y0072467D01*
X0135345Y0072467D02*
X0135345Y0067267D01*
X0125345Y0067267D02*
X0125345Y0072467D01*
X0115345Y0072467D02*
X0115345Y0067267D01*
X0105345Y0067267D02*
X0105345Y0072467D01*
X0095345Y0072467D02*
X0095345Y0067267D01*
X0155345Y0067267D02*
X0155345Y0072467D01*
X0165345Y0072467D02*
X0165345Y0067267D01*
X0175345Y0067267D02*
X0175345Y0072467D01*
X0185345Y0072467D02*
X0185345Y0067267D01*
X0195345Y0067267D02*
X0195345Y0072467D01*
X0205345Y0072467D02*
X0205345Y0067267D01*
X0215345Y0067267D02*
X0215345Y0072467D01*
X0225345Y0072467D02*
X0225345Y0067267D01*
X0225345Y0087267D02*
X0225345Y0092467D01*
X0215345Y0092467D02*
X0215345Y0087267D01*
X0205345Y0087267D02*
X0205345Y0092467D01*
X0195345Y0092467D02*
X0195345Y0087267D01*
X0185345Y0087267D02*
X0185345Y0092467D01*
X0175345Y0092467D02*
X0175345Y0087267D01*
X0235345Y0087267D02*
X0235345Y0092467D01*
X0245345Y0092467D02*
X0245345Y0087267D01*
X0100345Y0097267D02*
X0100345Y0102467D01*
X0090345Y0102467D02*
X0090345Y0097267D01*
X0080345Y0097267D02*
X0080345Y0102467D01*
X0070345Y0102467D02*
X0070345Y0097267D01*
X0060345Y0097267D02*
X0060345Y0102467D01*
X0050345Y0102467D02*
X0050345Y0097267D01*
D15*
X0065859Y0079915D02*
X0071459Y0079915D01*
X0071459Y0069915D02*
X0065859Y0069915D01*
X0065859Y0059915D02*
X0071459Y0059915D01*
X0071493Y0049371D02*
X0065893Y0049371D01*
X0065893Y0039371D02*
X0071493Y0039371D01*
X0071493Y0029371D02*
X0065893Y0029371D01*
D16*
X0131053Y0088415D03*
X0150053Y0088415D03*
D17*
X0048307Y0073646D03*
X0038465Y0073646D03*
X0038465Y0065378D03*
X0038465Y0055142D03*
X0038465Y0046874D03*
X0048307Y0046874D03*
X0269280Y0046874D03*
X0279123Y0046874D03*
X0279123Y0055142D03*
X0279123Y0065378D03*
X0279123Y0073646D03*
X0269280Y0073646D03*
D18*
X0294084Y0062638D02*
X0294084Y0057882D01*
X0023504Y0057882D02*
X0023504Y0062638D01*
M02*
