%
M48
M72
T01C0.02756
T02C0.03200
T03C0.03543
T04C0.03600
%
T01
X23504Y60260
X294084Y60260
T02
X91178Y17339
X91178Y27339
X116595Y27309
X116595Y17309
X145345Y24867
X155345Y24867
X165345Y24867
X175345Y24867
X185345Y24867
X185345Y39867
X175345Y39867
X165345Y39867
X155345Y39867
X145345Y39867
X135345Y39867
X125345Y39867
X115345Y39867
X105345Y39867
X95345Y39867
X95345Y69867
X105345Y69867
X115345Y69867
X125345Y69867
X135345Y69867
X145345Y69867
X155345Y69867
X165345Y69867
X175345Y69867
X185345Y69867
X195345Y69867
X205345Y69867
X215345Y69867
X225345Y69867
X250974Y60304
X250974Y50304
X225345Y39867
X215345Y39867
X205345Y39867
X195345Y39867
X150053Y88415
X131053Y88415
X100345Y99867
X90345Y99867
X80345Y99867
X70345Y99867
X60345Y99867
X50345Y99867
X120967Y106134
X130967Y106134
X149931Y106134
X159931Y106134
X175345Y89867
X185345Y89867
X195345Y89867
X205345Y89867
X215345Y89867
X225345Y89867
X235345Y89867
X245345Y89867
X239926Y101934
X269926Y101934
X296671Y102070
X296671Y92070
T03
X38465Y73646
X48307Y73646
X38465Y65378
X38465Y55142
X38465Y46874
X48307Y46874
X269280Y46874
X279123Y46874
X279123Y55142
X279123Y65378
X279123Y73646
X269280Y73646
T04
X68659Y79915
X68659Y69915
X68659Y59915
X68693Y49371
X68693Y39371
X68693Y29371
M30
